<?xml version="1.0" encoding="utf-8"?>
<!-- Generator: Adobe Illustrator 25.2.1, SVG Export Plug-In . SVG Version: 6.00 Build 0)  -->
<svg version="1.1"
	 id="svg4" xmlns:inkscape="http://www.inkscape.org/namespaces/inkscape" xmlns:sodipodi="http://sodipodi.sourceforge.net/DTD/sodipodi-0.dtd" xmlns:svg="http://www.w3.org/2000/svg"
	 xmlns="http://www.w3.org/2000/svg" xmlns:xlink="http://www.w3.org/1999/xlink" x="0px" y="0px" viewBox="0 0 3456 6912"
	 style="enable-background:new 0 0 3456 6912;" xml:space="preserve">
<style type="text/css">
	.st0{fill-rule:evenodd;clip-rule:evenodd;fill:#F8F0DD;}
</style>
<sodipodi:namedview  bordercolor="#666666" borderopacity="1.0" id="namedview6" inkscape:pagecheckerboard="0" inkscape:pageopacity="0.0" inkscape:pageshadow="2" pagecolor="#ffffff">
	</sodipodi:namedview>
<path id="path2" class="st0" d="M3205.8,2341.6l-108.6,110.7c14.1,15.9,27.5,35.8,35.8,53.5c22.5,47.8,36.8,104,7.3,152.5
	c-10.2,16.7-20.9,33.3-31.6,49.7c-15,22.9-30.3,45.7-46,68.1c-7.5,10.8-15.1,21.5-22.8,32.1c-16,22-32.2,43.9-49.3,65.1
	c-13.4,16.6-27.5,33.1-42.7,48.1c-23.2,22.7-49.6,42.5-82.1,49c-42.8,8.6-87.8-8-126.4-24.9c-16.3-7.2-34.5-19.1-49.9-30.9
	L2588,3031.8c7.6,5.5,15.7,10.7,23.3,15.5c40.9,25.5,93.4,41.8,140.8,48.6c58.5,8.4,119.8,4.2,174.8-18.5
	c44.1-18.2,81.3-49.4,113.4-84.2c47.4-51.5,95.5-102.8,141.2-155.8c17-19.6,33.7-39.6,49.4-60.3c12.4-16.3,24.3-33.2,34.5-51
	c33.3-58.2,61.9-124.4,48.9-192.8c-10.8-56.8-49.5-112.2-82-158.9C3224.9,2363.9,3215.5,2351.8,3205.8,2341.6L3205.8,2341.6z
	 M2401.8,6490.2c8.1-4.8,16-10.5,23.3-16c13.9-10.5,27.3-21.8,40.2-33.3c31.6-28.1,61.9-58.3,91.2-88.8
	c36.7-38.2,72.6-77.6,107.2-117.7c12.2-14.2,24.3-28.4,36-43c3.5-4.3,7-8.7,10.3-13.2c-16.5-19.4-34.3-36.6-53.6-53.6
	c-13.6-12-27.4-23.7-40.8-35.8c-3.2,4.2-6.6,8.1-9.2,11.1c-12.7,14.8-26.4,29.1-40,43.2c-38.2,39.4-77.4,77.9-116.2,116.6
	c-27.9,27.9-55.7,55.8-82.9,84.4c-17.9,18.8-36.4,38.4-53,58.6L2401.8,6490.2z M2515.7,6472.4l-70.1,57
	c11.8,10.1,24.6,19.8,36.9,27.9c7,4.6,14.4,9,22,12.6c33.9,15.9,74.9,26.3,111.5,34.1c48.7,10.4,98.7,17.3,148.3,21.5
	c45.6,3.9,92,5.5,137.7,3.4c36.4-1.6,76.4-5.6,111.5-16.2c6.3-1.9,16.8-6.5,22.3-12.4l-12.8-42.6c-8.5,2.3-17.2,4.3-25.6,6.2
	c-79.8,17.9-163.8,32.3-245.2,17c-79-14.8-152.4-56.9-220.1-98.4C2526.7,6479.1,2521.2,6475.7,2515.7,6472.4L2515.7,6472.4z
	 M503.9,6317c-25.5,20.9-45.1,44.5-65.9,70.5c-7.3,9.2-14.7,18.3-22.2,27.3c16.2,11,34.8,18.9,52.7,26.2
	c24.8,10.1,50.6,19.6,73,34.5c56.7,8.6,113.1,4.7,168.1-11.9c67.3-20.3,127.7-57.9,181.1-103c6.6-5.6,13.1-11.9,19.3-17.9
	c10.4-10,20.7-20.2,31-30.4c27.1-26.8,54-53.8,81.1-80.6c22.5-22.2,45-44.3,67.9-66.1c13.8-13.1,28-26.5,42.5-39
	c-13.9-14.6-29.6-28.1-44.7-41c-19.2-16.5-38.5-32.7-56.8-50.2c-25.6,17.2-49.3,38.3-71.4,59.4c-28.3,27-55.2,55.6-82.4,83.7
	c-62.9,64.7-143.4,145.7-235.7,162.4C592.9,6349.7,546.7,6339.7,503.9,6317L503.9,6317z M920.6,6554.6c-26.8-26.8-50.9-56.6-77-84.1
	c-67.9,31.5-136.1,59.9-211.4,68.2c-94.9,10.4-180.8-14-261.3-62.6c-11.8,13-23.3,26.2-34.4,39.8c-16,19.6-33.2,42-44.7,64.5
	c-2.5,4.8-5.4,12.1-3.4,17.6c6.3,17,57.1,23.2,71.8,24.7c26.9,2.9,54.5,3.7,81.5,3.9c34.8,0.3,69.7-0.4,104.5-1.3
	C670,6621.7,804,6600.2,920.6,6554.6z M409.5,4744.5c45.9,48.5,92.1,96.7,138.6,144.7c26.9,27.8,53.9,55.5,81.2,82.9
	c18.8,18.9,37.9,38.4,57.8,56.1c66,59.1,149.4,112.6,242,102.6c69.1-7.5,129.6-48.6,179.5-94.6c2.8-2.6,5.9-6,8.4-9.7l-81-90.8
	c-14,9.8-28.9,19.1-43.5,27.4c-16.2,9.2-43.5,23.5-62.5,21.7c-13-1.3-30.1-8.2-42.1-13.3c-18.6-8-37-17.3-54.6-27.4
	c-24-13.7-60-36.3-76.3-58.8c-3.9-5.4-9.3-11-13.7-16c-9-10-18.2-19.9-27.4-29.7c-25.4-27.1-51.2-54-77-80.8
	c-37.9-39.4-75.9-78.6-114-117.7L409.5,4744.5z M384.8,4957.1c20.6-18.2,40.4-37.7,60.6-56.1c4.6-4.2,9.2-8.4,13.9-12.5
	c-4-4.6-8.1-9.1-12-13.5c-11.4-12.8-22.9-25.5-34.5-38c-12.1-13.2-24.4-26.4-36.8-39.4C333.3,4855.1,323,4908.2,384.8,4957.1
	L384.8,4957.1z M429.5,4211.7l349.1,341.5l82.6-87.7L521,4093.1L429.5,4211.7z M471.1,4338.7c-25.2-28.8-51.8-56.3-78.1-84
	c-39.7,53.9-56.1,105.1,7,153.4C425.3,4387.5,450.1,4363.7,471.1,4338.7L471.1,4338.7z M1054.2,421.8c-8.1,4.8-16,10.5-23.3,16
	c-13.9,10.5-27.3,21.8-40.2,33.3c-31.6,28.1-61.9,58.3-91.2,88.8C862.8,598,827,637.4,792.3,677.6c-12.2,14.2-24.3,28.4-36,43
	c-3.5,4.3-7,8.7-10.3,13.2c16.5,19.4,34.3,36.6,53.6,53.6c13.6,12,27.4,23.7,40.8,35.8c3.2-4.2,6.6-8.1,9.2-11.1
	c12.7-14.8,26.4-29.1,40-43.2c38.2-39.4,77.4-77.9,116.2-116.6c27.9-27.9,55.7-55.8,82.9-84.4c17.9-18.8,36.4-38.4,53-58.6
	L1054.2,421.8z M940.3,439.6l70.1-57c-11.8-10.1-24.6-19.8-36.9-27.9c-7-4.6-14.4-9-22.1-12.6c-33.9-15.9-75-26.3-111.5-34.1
	c-48.7-10.4-98.7-17.3-148.3-21.5c-45.6-3.9-92-5.5-137.7-3.4c-36.4,1.6-76.4,5.6-111.5,16.2c-6.3,1.9-16.8,6.5-22.3,12.4l12.8,42.6
	c8.5-2.3,17.2-4.3,25.6-6.2c79.8-17.9,163.8-32.3,245.2-17c79,14.8,152.4,56.9,220.1,98.4C929.3,432.9,934.8,436.3,940.3,439.6
	L940.3,439.6z M3040.3,497.2c-16.2-11-34.8-18.9-52.7-26.2c-24.8-10.1-50.6-19.6-73-34.5c-56.7-8.6-113.1-4.7-168.1,11.9
	c-67.3,20.3-127.7,57.9-181.1,103c-6.6,5.6-13.1,11.9-19.3,17.9c-10.4,10-20.7,20.2-31,30.4c-27.1,26.8-54,53.8-81.1,80.6
	c-22.5,22.2-45,44.3-67.9,66.1c-13.8,13.1-28,26.5-42.5,39c13.9,14.6,29.6,28.1,44.7,41c19.2,16.5,38.5,32.7,56.8,50.2
	c25.6-17.2,49.3-38.3,71.4-59.4c28.3-27,55.2-55.6,82.4-83.7c62.9-64.7,143.4-145.7,235.7-162.4c48.5-8.8,94.7,1.3,137.6,23.9
	c25.5-21,45.1-44.5,65.9-70.5C3025.4,515.3,3032.7,506.1,3040.3,497.2L3040.3,497.2z M2535.4,357.4c26.8,26.8,50.9,56.6,77,84.1
	c67.9-31.5,136.1-59.9,211.4-68.2c94.9-10.4,180.8,14,261.3,62.6c11.8-13,23.3-26.2,34.4-39.8c16-19.6,33.2-42,44.7-64.5
	c2.5-4.8,5.4-12.1,3.4-17.6c-6.3-17-57.1-23.2-71.8-24.7c-26.9-2.9-54.5-3.7-81.5-3.9c-34.8-0.3-69.7,0.4-104.5,1.3
	C2786,290.3,2652,311.8,2535.4,357.4L2535.4,357.4z M3046.5,2167.5c-0.9-0.9-1.8-1.9-2.7-2.8c-11.2-11.8-22.4-23.5-33.6-35.3
	c-34-35.7-68.1-71.2-102.3-106.6c-26.9-27.8-53.9-55.5-81.2-82.9c-18.8-18.9-37.9-38.4-57.8-56.1c-66-59.1-149.4-112.6-242-102.6
	c-69.1,7.5-129.6,48.6-179.5,94.6c-2.8,2.6-5.9,6-8.4,9.7l81,90.8c14-9.8,28.9-19.1,43.5-27.4c16.2-9.2,43.5-23.5,62.5-21.7
	c13,1.3,30.1,8.2,42.1,13.3c18.6,8,37,17.3,54.6,27.4c24,13.7,60,36.3,76.3,58.8c3.9,5.4,9.3,11,13.7,16c9,10,18.2,19.9,27.4,29.7
	c25.4,27.1,51.2,54,77,80.8c37.9,39.4,75.9,78.6,114,117.7L3046.5,2167.5z M2996.7,2023.5c4,4.6,8.1,9.1,12,13.5
	c11.4,12.8,22.9,25.5,34.5,38c12.1,13.2,24.4,26.4,36.8,39.4c42.7-57.5,53-110.6-8.8-159.5c-20.6,18.2-40.4,37.7-60.7,56.2
	C3005.9,2015.3,3001.3,2019.4,2996.7,2023.5L2996.7,2023.5z M3026.5,2700.3l-349.1-341.5l-82.6,87.7l340.2,372.3L3026.5,2700.3z
	 M3056,2503.9c-25.3,20.6-50.1,44.3-71.1,69.3c25.2,28.8,51.8,56.3,78.1,84C3102.7,2603.4,3119,2552.2,3056,2503.9L3056,2503.9z
	 M2380.3,4831.7l336.9-358l-93.4-108.8l-343.4,375.8c8.3,8.6,16.7,17.1,25.3,25.4c8.1,7.9,16.7,16.2,25.6,23.3
	C2347.9,4802.7,2364.3,4817.2,2380.3,4831.7L2380.3,4831.7z M2756.2,4542l-50.1,56.9c25.5,25.7,48,52.5,69.9,81.1
	c10.9-20.9,4.6-61.6,0.8-78.7C2773,4584,2765.8,4560.4,2756.2,4542z M2291.2,5898.5c15.8,17.5,32.1,34.4,49.4,50.5
	c16.1,14.9,32.8,28.9,50.2,42.3c60-70.5,120.4-140.7,181.3-210.4c38.8-44.4,77.7-88.7,117.4-132.3c15-16.5,30.1-32.9,45.6-48.9
	c8.2-8.5,17.2-17.9,26.4-25.9c7.4-41.1-36-80.3-67.4-106.9c-21.5,24.9-42.7,50.1-64.2,75c-42.9,49.7-86.1,99.2-130,148
	c-42.8,47.6-86.5,95.3-131.9,140.5c-17.2,17.2-35,34.3-53.6,50C2307.7,5886,2299.6,5892.8,2291.2,5898.5L2291.2,5898.5z
	 M2781.7,5643.8l-96,103.4l72.9,77.9C2790.5,5768.7,2789.3,5706.8,2781.7,5643.8z M1653.9,6252.9c19.8,5,40.7,8.9,60.2,11.1
	c14,1.6,29.3,2.6,43.3,1c9.7-1.1,19.2-4.5,28-8.6c16.2-7.6,34.5-20.4,49.1-33.7c-3.4-3.6-6.6-7.3-8.9-10.1
	c-22.7-27.2-42.7-60.4-60.2-91.1c-25-43.8-38.5-90.6-42.5-140.7c-3-38.1,0-73.9,3.3-111.7c1.6-18.2,6.4-36.7,11.9-54
	c7.1-22.1,16.2-43.8,26.1-64.8c3.1-6.6,6.3-13.3,9.7-19.8l-70.5-79.4l-113.6,140.5c10.9,15.5,22.4,30.9,34.2,45.6
	c7.2,9,14.6,17.9,22.5,26.3c38.8,41.2,49.5,114.1,51.4,168.5c1.3,35.4-0.7,71.8-5.8,106.9c-3.5,23.9-9.3,54.7-19.9,76.5
	C1666.2,6227.9,1660.1,6240.4,1653.9,6252.9L1653.9,6252.9z M1040.7,5504.5c-22.4,22.1-45.5,43.8-68.2,65.5
	c-39.1,37.2-78.2,74.4-117.1,111.8c-41.6,40-83.1,80.1-123.6,121.2c-15.1,15.3-30.2,30.9-44.7,46.8c-5.6,6.1-12.2,13.3-17.8,20.5
	l73.8,88.1c49.8-49.8,101.2-97.9,152.1-146.4c76.9-73.4,154.7-149,221.1-232.3C1092.9,5553,1067.1,5528.2,1040.7,5504.5
	L1040.7,5504.5z M624.9,5605.6c-22.3,44.7-22.4,100.1-11.2,147.6c5.1,21.6,12.7,42.9,22.8,62.7l84.8-95.6
	c-4.9-6.5-10-12.8-15.1-19.1c-9.7-12-19.6-23.8-29.6-35.6C659.6,5645.5,642.3,5625.4,624.9,5605.6L624.9,5605.6z M1799.9,4048.3
	c-31.1-9.1-81.1-20.3-102.6-12.2c-23.8,9-62.4,52-83.2,77.6c4.4,5.7,8.6,11.6,12.8,17.4c40.9,57.3,56.4,129.7,55.3,199.2
	c-1.1,71-19.8,149.5-56.7,210.6c-5.1,8.4-10.6,17.1-16.3,25.5l111.5,113.7l71.2-84.9c-7.3-11.1-14.5-22.3-21.7-33.5
	c-29.5-46.4-46-107.8-52.4-161.9c-8.3-70.8-1.5-144,22.3-211.4c13.4-38,28.8-75.5,45.9-112
	C1790.6,4067.1,1795.1,4057.6,1799.9,4048.3L1799.9,4048.3z M2111.2,4366.8l-345.9,351.6l94.6,100.5l320.7-378.4L2111.2,4366.8z
	 M2002,4242c-9,13-17.2,28.4-22.6,41.6c-14.1,34.8-16.8,71.6,3.7,104.6c0.8,1.3,2.3,3.3,3.9,3.8c4.7,1.2,14.2-5,17.7-7.5
	c11-7.9,21.4-18.7,30.4-28.8c8.7-9.8,17-19.9,25.2-30.1c3.2-4,6.5-8.3,9.9-12.5c-15.3-16.8-30.9-33.5-46.8-49.8
	C2016.4,4256.2,2009.3,4249,2002,4242L2002,4242z M2221.1,4490.7l-70.5,87.3l6.2,10.4l0.1,0.2c11.5,20.5,29.2,41,44.7,58.6
	c10.9,12.3,22,24.2,33.3,36.2c25.1-31.4,52.1-61.4,78.6-91.6L2221.1,4490.7z M1461.8,5299.3c122.9,123.9,234.5,258.9,360.5,379.7
	l89.8-91.2c-54.8-60.8-108.3-122.8-163.8-182.9c-63.1-68.3-130.4-136.7-204-194C1517.8,5241.4,1490.1,5270.6,1461.8,5299.3z
	 M1962.4,5355.2c-28.4,31.7-57.1,63.3-86.7,93.8c25.6,35.2,56.4,66.6,85.1,99.4l95.6-101.6c-16.7-18.1-33.9-35.9-51.4-53.1
	c-9.4-9.2-18.9-18.3-28.8-27C1971.8,5362.9,1967.2,5358.9,1962.4,5355.2z M1234.3,4736.3l84.4,94.3c34.1-36.3,67.9-73,101.3-109.8
	c19.8-21.8,39.5-43.7,58.9-65.9c13.2-15.1,27.2-31,39.1-47.2c31.4-42.9,56.7-93.3,74.4-143.4c28.1-79.3,49.3-196.8-1.9-271.4
	c-9.2-13.4-18.6-26.8-28-40L1460,4259.3c10.5,32.2,20.8,65,29.6,97.6c1.9,6.9,3.1,14,3.8,21.1c3.8,39.7-10.5,78.6-29.9,112.6
	c-21.6,38-51.1,73.1-81,104.8c-39.1,41.4-81.3,78.7-122.9,117.3C1251.2,4720.6,1242.8,4728.5,1234.3,4736.3z M1120.8,4623
	c5.8,5.9,11.4,11.9,17,17.9c10.3,11.1,20.3,22.5,30.5,33.7c5.8,6.4,11.7,12.9,17.8,19.1c3.2-2.7,6.3-5.4,9.5-8.1
	c10.4-9.1,20.5-18.6,30.3-28.2c8.6-8.4,17.1-17.1,25.1-26.1c2.5-2.8,5.9-6.7,8.8-10.5c-3.7-4.2-7.5-8.3-11.3-12.3
	c-8-8.4-16.2-16.7-24.4-24.9c-10.6-10.6-21.5-21.3-32-32.2c-10.5,11-21.5,21.8-32.2,32.4c-9.5,9.5-19.1,18.9-28.6,28.4
	C1127.9,4615.8,1124.3,4619.4,1120.8,4623L1120.8,4623z M1443,4380.5c-2.3-22.5-7.6-45.1-14.5-66.6c-1.2-3.8-2.5-7.7-3.9-11.7
	l-32.5,28.3c6.4,7,12.8,14.1,19.1,21.2c5.2,5.9,10.4,12,15.4,18.1c3.7,4.6,8,9.9,10.9,15.1c0.7,1.3,2.2,3.7,3.8,6.2
	c0.6-2.4,1-4.8,1.3-7.2C1442.8,4382.7,1442.9,4381.6,1443,4380.5L1443,4380.5z M1439.1,4800c-24.8,24.5-50,48.3-75.5,72.1l89.4,95
	c24.4-23.5,47.6-48.1,71.3-72.3L1439.1,4800z M1643.7,5012.7c-17.4-25.4-43.1-52.4-67.4-72.3c-7.1,8.3-14.5,16.4-21.9,24.4
	c-14.5,15.8-29.4,31.3-44.2,46.8c-36.7,38.1-73.9,75.8-110.9,113.6c-36.5,37.2-73,74.5-108.7,112.3c-14.5,15.3-28.9,30.8-42.9,46.6
	c-7.3,8.2-14.7,16.7-21.7,25.3c3.7,4,7.4,8,11.1,12c15.9,17.1,31.8,34.2,47.9,51.2c3.8,4,7.6,8.1,11.4,12.1
	c21.3-23.1,43.3-45.7,65.1-68.3c34.4-35.7,68.9-71.2,103.3-107c39.1-40.6,78.1-81.4,116.1-123.1c14.6-16,29.1-32.2,43.1-48.8
	C1630.4,5029.8,1637.6,5021.3,1643.7,5012.7L1643.7,5012.7z M1429,5356.2c-1.5,1.4-3.1,2.9-4.6,4.4c-12.5,12.2-24,25.4-35.4,38.6
	c-12.8,14.8-25.5,29.5-38.6,43.9c6.5,9.1,13.6,18,20.4,26.6c14.3,17.9,29.5,35.4,45.4,51.8c4.1,4.3,8.3,8.5,12.6,12.6
	c30.4-26.6,57.7-55.4,84.3-85.7L1429,5356.2z M1693.9,5265.9c14.7-17.3,30.4-34.1,45.5-50.8c10.2-11.2,20.3-22.5,30.2-34
	c5.3-6.1,10.6-12.4,15.7-18.8c-19.1-20.4-38.7-40.4-58.5-60c-11.8-11.6-23.9-23.4-36.3-34.4c-10.4,10.6-21.2,20.9-31.9,31.3
	c-22.1,21.2-46.8,44.3-65.4,69.5c19.3,17,37.7,35,55.9,53.2C1663.8,5236.6,1678.5,5251.7,1693.9,5265.9L1693.9,5265.9z M1476.5,4754
	l364.2,354.8l94.1-111.9l-356.5-365.5L1476.5,4754z M1971,4791.4c-7.6,9.5-16.1,18.8-24,27.3c-9.3,10.1-18.9,20.1-28.2,30.2
	c-3.1,3.3-6.1,6.7-9.1,10.1l72.9,85.3l56.5-61.3c-12.9-15.5-24.9-32.4-36.6-48.5C1992.2,4820.3,1981.8,4805.5,1971,4791.4
	L1971,4791.4z M1941.4,3862.5c-40.5-36.8-100-57-152.4-65c-61.6-9.5-147.3-6.3-199.9,31.3c-128.7,100-246.4,210.9-343.1,342.4
	c13.1,16.2,26.2,32.4,39.3,48.5c9.8,12,19.6,24,29.5,36c3.5,4.3,7.1,8.5,10.7,12.8c1.6,1.9,3.4,4.2,5.2,5.9c3.1,3,11.6,11.8,16,12.3
	c4.3,0.6,12.1-9.8,14.1-12.6l0.9-1.2l1.1-1c32.2-29.8,61.3-62.1,89.9-95.2c27.2-31.5,53.9-63.5,83-93.4
	c35.7-36.7,73.8-68.4,118.6-93.6c33.8-19,69.1-25.4,107.5-21.8c30.3,2.9,59.4,11.6,88.3,20.7c15-21.5,30.2-43,45.4-64.3
	c11.7-16.4,23.6-32.8,35.8-48.8C1934.6,3871.2,1937.9,3866.8,1941.4,3862.5L1941.4,3862.5z M1237.1,4077
	c-13.9-14-27.5-28.2-41.2-42.4c-21.3-22-42.7-43.2-65.3-63.6l-26.8,24.5c17,18.9,34.8,37.1,52.2,55.6c17.9,19,36.3,38.9,52.6,59.8
	C1217.2,4098.8,1226.2,4087.2,1237.1,4077z M1411.7,4432l-341.4-387.4l-125.3,148l371.5,384c13.5-12,26.8-24.6,39.5-37.2
	c10.7-10.6,22.1-22.2,31.2-34.1c11.9-15.6,20.4-33.7,23.4-53.2C1411.6,4446.3,1412.2,4438.4,1411.7,4432L1411.7,4432z M830.5,4316.4
	c27.4,33.2,56,64.8,87,94.6l67.7-68.8c-25.9-34-55.3-65.8-86-95.5C874.9,4268.2,852.8,4292.9,830.5,4316.4L830.5,4316.4z
	 M1040.4,4392.3l-340.1,340l105.5,105l340.5-332.4L1040.4,4392.3z M980.4,4880c-20.5-18-38.3-39.6-59.2-57l-62.9,56.5
	C902.3,4917.3,936.2,4917.3,980.4,4880L980.4,4880z M959.6,4772.4l348.3,348.7l97.5-94.2l-333.3-359.7L959.6,4772.4z M1258.8,5164.6
	l-93.8-90.2L1028.2,5176c17.3,6.2,34.6,13,51.2,20.2c15.7,6.8,32,14.5,46.4,23.7c16.5,10.5,32.3,23.1,45.8,37.4
	c1.1,1.1,2.1,2.3,3.2,3.5L1258.8,5164.6z M678.1,5301.9l92.5,104.1c71.5-30.3,145-36.4,219.1-8.6c68.1,25.6,125.7,75.2,175.1,127.4
	c26.3,27.7,51,56.8,75.4,86.1c18.7,22.4,37.3,45.1,56.8,66.9l85.7-96.7c-95.6-118.4-210.7-263.1-346.3-332.3
	c-59.1-30.2-147.9-25.5-210.9-11.7C775.1,5248,719.4,5269,678.1,5301.9L678.1,5301.9z M1244.4,5728.2c-16.1-21-31.9-42.5-49.1-62.5
	c-11.7-13.6-23.9-26-37.2-37.8c-12.5,9.8-24.1,21.4-34.6,32.9c-10.6,11.5-20.6,23.5-30.7,35.4c-6,7.1-11.9,14.3-18.1,21.2l84.1,87.1
	C1188.1,5780,1216.7,5754.6,1244.4,5728.2L1244.4,5728.2z M906.2,5541.6c23.9-26.7,47.2-54.8,73.3-79.3
	c-48-24.3-104.7-18.9-156.7-7.4c5.7,6.5,11.5,12.8,17.4,19.1c13.2,14.1,26.9,27.7,40.5,41.4C889.2,5524,897.8,5532.7,906.2,5541.6
	L906.2,5541.6z M894.5,5902L790,6009.2l79.4,88.1L982.7,5997c-13.8-15.4-27.4-30.9-41.3-46.2c-10.7-11.8-21.6-23.5-32.8-34.9
	C904.4,5911.6,899.5,5906.6,894.5,5902L894.5,5902z M942.2,5856.2c135.3,121.2,262.7,251.5,393,378l71.7-89.4
	c-65.5-68.1-131.4-135.9-197.6-203.3c-37.1-37.7-74.3-75.4-112-112.6c-15.3-15.1-30.7-30.2-46.2-45.1c-7.8-7.5-15.7-15-23.7-22.3
	L942.2,5856.2z M1361.6,6007.8c11,10.5,21.4,21.9,31.3,33.4c10.5,12.2,20.7,24.7,30.8,37.1c4.5,5.5,9,11,13.6,16.5
	c5.3-11.5,9.2-24.5,10.9-35.2c6.2-38.5-6.9-72.4-30.7-101.3L1361.6,6007.8z M1321.9,5963.4c2.2-2.2,4.4-4.4,6.5-6.7
	c14.8-15.1,29.6-30.3,44.3-45.5c44.6-46.2,88.9-92.7,132.5-139.9c32.9-35.6,65.5-71.6,97-108.4c13-15.2,25.8-30.6,38.1-46.3
	c6.7-8.6,13.5-17.4,19.8-26.5l-96.8-97.1c-57.5,61.6-118.6,119-178.7,178c-59.1,57.9-115.1,116.7-165.7,182L1321.9,5963.4z
	 M1877.7,6180.1l103.4-86.5c-3.8-4-7.5-8.2-11-12.3c-15-17.3-29-36.5-39.7-56.8c-8.2-15.6-14.9-32.6-17.2-50.2
	c-9.2-68.6,38.5-146.8,77.6-199.7c30-40.7,64.2-79,99.5-115.2c12.4-12.7,25.1-25.2,37.9-37.5c4-3.9,8-7.7,12.1-11.6
	c1.7-1.6,3.7-3.5,5.3-5.2c5.4-6.4,11-12.9,16.6-19.2l-75.8-92.1c-44.2,43.2-88,86.9-131.2,131.1c-25.1,25.7-50.1,51.6-74.5,78
	c-9.9,10.7-19.6,21.5-29.1,32.5c-6.7,7.7-13.5,15.8-19.5,24c-45.2,62.1-62.5,136-53.6,211.9c7.7,65.9,35.4,133.1,78,184.1
	C1863.2,6163.7,1870.3,6172.1,1877.7,6180.1L1877.7,6180.1z M2321.8,5766c-18-22.6-38.2-44.4-57.6-65.4
	c-19.6-21.1-39.5-41.8-59.3-62.7c-28.2,29.3-59.5,56.2-84.9,87.9c6.3,7,13,13.6,19.7,19.9c11.4,10.8,23.2,21.2,35,31.6
	c15,13.1,30.2,26.1,44.8,39.7c8,7.4,16.6,15.6,24.2,24.2c12.6-10.1,24.4-21.8,35.6-33.1C2293.4,5793.9,2307.2,5779.5,2321.8,5766
	L2321.8,5766z M1974.2,5923.4c-18.4,49.2,17.7,98.5,51,135.2c15-13.9,29.6-27.7,43.5-42.7
	C2044.5,5987.4,2004.9,5943.1,1974.2,5923.4L1974.2,5923.4z M2380.9,6251.6c12.1-12,24.6-23.7,36.6-35.7
	c16.6-16.4,32.5-33.3,47.7-51c-64.4-60.6-126.2-124.1-187.6-187.8c-65.3-67.7-130.4-135.7-197.1-202.1l-70.9,96.5
	c24.1,26,48.7,51.6,73.3,77.2c35.8,37.2,71.7,74.2,107.8,111.1c38.3,39.2,76.7,78.2,115.3,117.1
	C2330.9,6201.9,2355.7,6226.9,2380.9,6251.6L2380.9,6251.6z M2485.2,5978c-5.4,5.9-11,11.8-16.5,17.6c-12,12.5-23.8,24.8-35,37.8
	c25.5,27.4,50.9,54.8,76.2,82.3c2.9-2.8,5.7-5.6,8.1-8.1c9.7-9.6,19.2-19.4,28.6-29.3c9.3-9.8,18.7-19.7,27.8-29.8
	c-4.6-3.6-9.4-7.1-14-10.6c-10.5-7.8-21.2-15.5-31.6-23.4C2514.5,6003.8,2498.4,5991.4,2485.2,5978L2485.2,5978z M2504.6,5571.1
	l135.7-141.8c-3.7-1.6-7.4-3.1-11.1-4.6c-76.8-30.9-141.5-9.7-211.6,27.7c-3,1.6-6.1,3.3-9.1,4.9L2504.6,5571.1z M2463.4,5628.4
	l-361-426.9l-104.8,101.9l376,415.8L2463.4,5628.4z M1828.5,5403.6l346.6-384.5l-79.7-87l-349.3,379.3L1828.5,5403.6z
	 M2710.4,5029.2l-90.5-96.2c-9.3,2.7-19,4.9-28.1,6.8c-67.7,13.7-134.1,11.8-197.6-17.4c-51.7-23.7-94.7-62.1-133.4-103.1
	c-21.8-23.1-42.5-47.3-62.9-71.7c-22.4-26.7-44.5-53.7-67.1-80.4c-8.3-9.8-16.6-19.7-24.9-29.5l-94,107
	c7.6,10.9,15.4,21.6,23.1,32.3c5.9,8.1,12.4,16,18.8,23.7c9.1,10.9,18.4,21.6,27.8,32.2c23.2,26.2,47.2,51.9,71.5,77
	c22.1,22.8,44.6,45.3,67.8,66.9c16.9,15.8,35.5,32.7,54.4,46.1c47,33,104.2,50.2,160.8,56.6c77.2,8.6,169.6-1.8,240.6-34.4
	C2688.1,5040,2699.3,5034.7,2710.4,5029.2L2710.4,5029.2z M2549,4887.1c3.9-0.9,13.2-3.5,19.8-6.2c-15.9-13.6-31.4-28.6-46.1-42.9
	c-11-10.7-22-21.6-32.6-32.9l-59.1,58.4c14.4,6.4,29.6,11.9,44.4,16.1C2497.1,4885.8,2526.5,4891.6,2549,4887.1L2549,4887.1z
	 M2520.8,4383.4l64.5-65.1c-23.9-36.7-54.6-70.3-83-103.9l-74.1,70.8c16.1,17.3,33.3,34,49.7,50.9
	C2492.3,4351.1,2507.4,4366.9,2520.8,4383.4z M2360.4,4544.6c38-35.6,73.2-74.3,109.1-112.1c-2.2-2.3-4.3-4.6-6.5-7
	c-13.7-14.7-27.4-29.5-41.1-44.3c-41.5-44.9-82.7-89.9-123.7-135.2c-37-41-74-82.2-109.9-124.2c-13.3-15.6-26.6-31.3-39.3-47.4
	c-3.3-4.2-7.1-9-10.8-13.9c-9.5,11.6-18.3,23.8-26.9,36.2c-21.8,31.7-41.4,63.5-65.3,93.4c20,21.2,39.6,42.9,59,64.6
	c30.3,33.7,60.4,67.6,90.5,101.6c40.2,45.5,80.2,91.1,120.1,136.8c13.2,15.1,26.3,30.1,39.4,45.2
	C2356.8,4540.5,2358.6,4542.5,2360.4,4544.6L2360.4,4544.6z M2180.5,4011.1c29.7,29.5,54.1,64.7,80.6,97.1
	c10.5-10.6,20.5-22,30.3-33c9.6-10.8,19.3-21.8,29.5-32.1l-89.4-89.5C2214.2,3972.2,2195,3990.7,2180.5,4011.1L2180.5,4011.1z
	 M2174.8,3905.3l-99.1-88.9c-33.8,41.9-68.1,83.5-103,124.4c-18.7,22-37,44.4-54.6,67.3c-106.6,139.3-210.9,327.6-98.6,495.4
	c7.3,10.9,16.2,22.4,25.4,32.7l103-99.9c-6.3-8.1-12.3-16.9-17.4-25.1c-11.6-18.8-18.7-39.3-21.3-61.2
	c-6.6-56.1,17.4-113.4,45.4-160.7c16.3-27.5,35-53.7,54.7-78.9c15.8-20.2,32.3-39.6,48.4-59.5
	C2097.1,4002.6,2135.9,3953.9,2174.8,3905.3L2174.8,3905.3z M1983.2,3809.3l36.7-39c-55.9-35-111.8-70-168.1-104.3
	c-10.6-6.4-22.3-12.2-33.4-17.6c-15.6-7.7-31.5-15.1-47.3-22.4c-29.6-13.6-59.4-27-89.3-39.8c-36.3,13.3-72.6,26.9-108.7,40.7
	c-21.1,8.1-42.1,16.2-63,24.7c-13.5,5.5-28.1,11.2-41.1,17.8c-21.9,11.2-43.2,26-62.9,40.8c-24.5,18.4-48.2,38.3-71.1,58.8
	c-6.8,6.1-13.6,12.2-20.3,18.5l100.5,97.3c7.6-6.3,15.1-12.6,22.6-18.9c46.7-39.6,98.7-80.4,153.4-108.3
	c40.1-20.4,81.3-33.3,126.6-33.7c34.5-0.3,68,6.6,100.8,16.7c38.9,12,77.3,28.1,114.7,44.1C1950,3791.6,1967,3800.4,1983.2,3809.3
	L1983.2,3809.3z M2185.1,3165.5c-70,67.7-144.8,124.1-235.1,162.9c-10.5,4.5-21.4,8.5-32.1,12.5c-17.8,6.6-35.8,13.1-53.7,19.5
	c-47.9,17.2-96,34-144.1,50.8c-51.9,18.1-103.9,36.1-155.9,53.9c-18,6.2-36,12.3-54,18.4c-8.4,2.8-17.1,6-25.6,8.5
	c-38.9,11.4-77.2,28.1-113.3,46.5c-40.7,20.8-80.7,44.9-117.8,71.7c-15.4,11.1-30.5,22.8-44.7,35.3c-6.7,5.9-13.6,12.3-20,19
	c5.1,4.3,10,8.7,14.8,13.2c10.1,9.4,20,19.2,29.7,29.1c12.8,13.1,25.2,26.4,37.6,39.8c70-67.7,144.8-124.1,235.1-162.9
	c29.7-12.8,59.9-24.7,90-36.7c44.6-17.8,89.2-35.4,133.9-52.9c19.2-7.5,39-14.1,58.6-20.5c24.8-8.1,49.8-16,74.6-24.1
	c58.3-18.8,116.3-38.4,173.1-61.4c75.8-30.6,174.6-77.1,231.3-140.4c-5.1-4.3-10.1-8.8-14.9-13.3c-10.1-9.4-20-19.2-29.7-29.1
	C2210,3192.2,2197.5,3178.8,2185.1,3165.5L2185.1,3165.5z M2141.2,3124.6l-100.5-97.3c-7.6,6.3-15.1,12.6-22.6,18.9
	c-46.7,39.6-98.7,80.4-153.4,108.3c-40.1,20.4-81.3,33.3-126.6,33.7c-34.5,0.3-68-6.6-100.8-16.7c-38.9-12-77.3-28.1-114.7-44.1
	c-16.7-7.1-33.6-15.9-49.7-24.8l-37,39.3c13.9,9.1,28,18.1,42,26.9c41.1,25.9,82.9,50.9,125.5,74.2c36.5,19.9,75.1,39.7,114,54.5
	c16.6,6.3,54.9,19.6,72.5,13.8c29.3-9.7,58.7-19.2,87.9-29c22.4-7.5,44.9-15.1,67.1-23.1c8.7-3.1,17.3-6.3,25.9-9.7
	c5.4-2.1,11.1-4.4,16.2-7c21.9-11.2,43.2-26,62.9-40.8c24.5-18.4,48.2-38.3,71.1-58.7C2127.7,3137,2134.5,3130.9,2141.2,3124.6
	L2141.2,3124.6z M1075.7,2080.3l-336.8,358l93.4,108.7l343.4-375.8c-8.3-8.6-16.7-17.1-25.3-25.4c-8.1-7.9-16.7-16.2-25.6-23.3
	C1108.1,2109.3,1091.7,2094.8,1075.7,2080.3L1075.7,2080.3z M699.8,2370l50.1-56.9c-25.5-25.7-48-52.4-69.9-81.1
	c-10.9,20.9-4.6,61.6-0.8,78.7C683,2328,690.2,2351.6,699.8,2370L699.8,2370z M1065.3,920.8c-59.9,70.5-120.4,140.7-181.3,210.4
	c-38.8,44.4-77.7,88.7-117.4,132.3c-15,16.5-30.1,32.9-45.6,48.9c-8.2,8.5-17.2,17.9-26.4,25.9c-7.4,41.2,36,80.3,67.4,106.9
	c21.5-24.9,42.7-50.1,64.2-75c42.9-49.7,86.1-99.2,130-148c42.8-47.6,86.5-95.3,131.9-140.5c17.2-17.2,35-34.3,53.6-50
	c6.7-5.7,14.8-12.4,23.2-18.1c-15.8-17.5-32.1-34.4-49.4-50.5C1099.4,948.2,1082.6,934.2,1065.3,920.8L1065.3,920.8z M674.3,1268.2
	l96-103.4l-72.9-77.9C665.5,1143.3,666.7,1205.2,674.3,1268.2z M1802.1,659.1c-19.8-5-40.7-8.9-60.2-11.1c-14-1.6-29.3-2.6-43.3-1
	c-9.7,1.1-19.2,4.5-28,8.6c-16.1,7.6-34.5,20.4-49.1,33.7c3.4,3.6,6.6,7.3,8.9,10.1c22.7,27.2,42.7,60.4,60.2,91.1
	c25,43.8,38.5,90.6,42.5,140.7c3,38.1,0,73.9-3.4,111.7c-1.6,18.2-6.4,36.7-11.9,54c-7.1,22.1-16.2,43.8-26,64.8
	c-3.1,6.6-6.3,13.3-9.7,19.8l70.5,79.4l113.6-140.5c-10.9-15.5-22.4-30.9-34.2-45.6c-7.2-9-14.6-17.9-22.5-26.3
	c-38.8-41.2-49.5-114.1-51.5-168.5c-1.3-35.4,0.7-71.8,5.8-106.9c3.5-23.9,9.3-54.7,19.9-76.5
	C1789.8,684.1,1795.9,671.6,1802.1,659.1L1802.1,659.1z M2415.3,1407.5c22.4-22.1,45.5-43.8,68.2-65.5
	c39.1-37.2,78.2-74.4,117.1-111.8c41.6-40,83.1-80.1,123.6-121.2c15.1-15.3,30.2-30.9,44.7-46.8c5.6-6.1,12.2-13.3,17.8-20.5
	l-73.8-88.1c-49.8,49.8-101.2,97.9-152.1,146.4c-76.9,73.4-154.7,149-221.1,232.3C2363.1,1359,2388.9,1383.8,2415.3,1407.5
	L2415.3,1407.5z M2831.1,1306.4c22.3-44.7,22.4-100,11.2-147.6c-5.1-21.6-12.7-42.9-22.8-62.8l-84.8,95.6c4.9,6.5,10,12.8,15.1,19.1
	c9.7,12,19.6,23.8,29.6,35.6c14.6,17.3,29.4,34.5,44.3,51.5C2826.1,1300.7,2828.6,1303.6,2831.1,1306.4L2831.1,1306.4z
	 M1841.9,2798.3c-4.4-5.7-8.6-11.6-12.8-17.4c-40.9-57.3-56.4-129.7-55.3-199.2c1.1-71,19.8-149.5,56.7-210.6
	c5.1-8.4,10.6-17.1,16.3-25.5l-111.5-113.7l-71.2,84.9c7.3,11.1,14.5,22.3,21.7,33.5c29.5,46.4,46,107.8,52.4,161.9
	c8.3,70.8,1.5,144-22.3,211.4c-13.4,37.8-28.6,75.2-45.7,111.5c-4.5,9.5-9.1,19.1-13.9,28.6c31.1,9.1,81.1,20.3,102.6,12.2
	C1782.5,2866.9,1821.2,2823.9,1841.9,2798.3L1841.9,2798.3z M1344.8,2545.2l345.9-351.6l-94.6-100.5l-320.7,378.4L1344.8,2545.2z
	 M1454,2670c9-13,17.2-28.4,22.6-41.6c14.1-34.8,16.9-71.6-3.7-104.6c-0.8-1.3-2.3-3.3-3.9-3.8c-4.7-1.2-14.2,5-17.7,7.5
	c-11,7.9-21.4,18.7-30.4,28.8c-8.7,9.8-17,19.9-25.2,30.1c-3.2,4-6.5,8.3-9.9,12.5c15.3,16.8,30.9,33.5,46.8,49.8
	C1439.6,2655.8,1446.7,2663,1454,2670L1454,2670z M1234.9,2421.3l70.5-87.3l-6.2-10.4l-0.1-0.2c-11.5-20.5-29.2-41-44.7-58.6
	c-10.9-12.3-22.1-24.3-33.3-36.2c-25.1,31.4-52.1,61.4-78.6,91.6L1234.9,2421.3z M1994.2,1612.7
	c-122.9-123.9-234.5-258.9-360.5-379.7l-89.8,91.2c54.8,60.8,108.3,122.8,163.8,182.9c63.1,68.3,130.4,136.7,204,194
	C1938.2,1670.6,1965.9,1641.4,1994.2,1612.7L1994.2,1612.7z M1580.3,1463c-25.6-35.2-56.4-66.6-85.1-99.4l-95.6,101.6
	c16.7,18.1,33.9,35.9,51.4,53.1c9.4,9.2,18.9,18.3,28.8,27c4.4,3.9,9,7.8,13.8,11.6C1522,1525.1,1550.7,1493.5,1580.3,1463
	L1580.3,1463z M1812.3,1899.3c17.4,25.4,43.1,52.4,67.4,72.2c7.1-8.3,14.5-16.4,21.9-24.4c14.5-15.8,29.4-31.3,44.2-46.8
	c36.7-38.1,73.9-75.8,110.9-113.6c36.5-37.2,73-74.5,108.7-112.3c14.5-15.3,28.9-30.8,42.9-46.6c7.3-8.2,14.7-16.7,21.7-25.3
	c-23.2-25.3-46.7-50.5-70.4-75.3c-21.3,23.1-43.3,45.7-65.1,68.3c-34.4,35.7-68.9,71.2-103.3,107c-39.1,40.6-78.1,81.4-116.1,123.1
	c-14.6,16-29.1,32.2-43.1,48.8C1825.6,1882.2,1818.4,1890.7,1812.3,1899.3L1812.3,1899.3z M2003,1944.9
	c-24.4,23.5-47.6,48.1-71.3,72.3l85.2,94.8c24.8-24.5,50-48.3,75.5-72.1L2003,1944.9z M2027.2,1377.9
	c-30.4,26.6-57.7,55.3-84.2,85.7l84.1,92.2c1.5-1.4,3.1-2.9,4.6-4.4c12.5-12.2,24-25.4,35.4-38.6c12.8-14.8,25.5-29.5,38.6-43.9
	c-6.5-9.1-13.6-18-20.4-26.6c-14.3-17.9-29.5-35.4-45.4-51.8C2035.7,1386.3,2031.5,1382.1,2027.2,1377.9L2027.2,1377.9z
	 M1765.5,1844c10.4-10.6,21.2-20.9,31.9-31.2c22.1-21.2,46.8-44.3,65.4-69.5c-19.3-17-37.7-35-55.9-53.2
	c-14.7-14.7-29.5-29.9-44.9-44.1c-14.7,17.3-30.4,34.1-45.5,50.8c-10.2,11.2-20.3,22.5-30.2,34c-5.3,6.1-10.6,12.4-15.7,18.8
	c19.1,20.4,38.7,40.4,58.5,60C1740.9,1821.2,1753,1833,1765.5,1844z M1979.5,2158l-364.2-354.8l-94.1,111.9l356.5,365.5L1979.5,2158
	z M1546.3,2053l-72.9-85.3l-56.5,61.3c12.9,15.5,24.9,32.4,36.5,48.5c10.3,14.2,20.7,29,31.5,43.1c7.6-9.5,16.1-18.8,24-27.3
	c9.3-10.1,18.9-20.1,28.2-30.2C1540.3,2059.7,1543.4,2056.4,1546.3,2053L1546.3,2053z M1893.5,2759.2l102.4-106.4
	c-10.5-32.2-20.8-65-29.6-97.6c-1.9-6.9-3.1-14-3.8-21.1c-3.8-39.7,10.5-78.6,29.9-112.6c21.6-38,51.1-73.1,81-104.8
	c39.1-41.4,81.3-78.7,123-117.3c8.4-7.8,16.8-15.7,25.4-23.5l-84.4-94.3c-34.1,36.3-67.9,73-101.3,109.8
	c-19.8,21.8-39.5,43.7-58.9,65.9c-13.2,15.1-27.2,31-39.1,47.2c-31.4,42.9-56.7,93.3-74.4,143.4c-28.1,79.3-49.3,196.8,1.9,271.4
	C1874.7,2732.6,1884.1,2745.9,1893.5,2759.2L1893.5,2759.2z M2335.2,2289c-5.8-5.9-11.4-11.9-17-18c-10.3-11.1-20.3-22.5-30.5-33.7
	c-5.8-6.4-11.7-12.9-17.8-19.1c-3.2,2.7-6.3,5.4-9.5,8.1c-10.4,9.1-20.5,18.6-30.3,28.2c-8.6,8.4-17.1,17.1-25.1,26.1
	c-2.5,2.8-5.9,6.7-8.8,10.5c3.7,4.2,7.5,8.3,11.3,12.2c8,8.4,16.2,16.7,24.4,24.9c10.6,10.6,21.5,21.3,32,32.2
	c10.5-11,21.5-21.8,32.2-32.4c9.5-9.5,19.1-18.9,28.6-28.4C2328.1,2296.2,2331.7,2292.6,2335.2,2289L2335.2,2289z M2013,2531.5
	c2.3,22.5,7.6,45.1,14.5,66.7c1.2,3.8,2.5,7.7,3.9,11.7l32.5-28.2c-6.4-7-12.8-14.1-19.1-21.2c-5.2-5.9-10.4-12-15.4-18.1
	c-3.7-4.6-8-9.9-10.9-15.1c-0.7-1.3-2.2-3.7-3.8-6.1C2013.8,2524.8,2013.2,2528.9,2013,2531.5L2013,2531.5z M2044.3,2480
	l341.4,387.4l125.3-148l-371.5-384c-13.5,12-26.8,24.6-39.5,37.2c-10.7,10.6-22.1,22.2-31.2,34.1c-11.9,15.6-20.4,33.7-23.4,53.2
	C2044.4,2465.7,2043.8,2473.6,2044.3,2480z M2625.5,2595.6c-27.4-33.2-56-64.8-87-94.6l-67.7,68.8c25.9,34,55.3,65.8,86,95.5
	C2581.1,2643.8,2603.2,2619.1,2625.5,2595.6z M2415.6,2519.7l340.1-340l-105.5-105l-340.5,332.4L2415.6,2519.7z M2475.6,2032
	c20.5,18,38.3,39.6,59.2,57l62.9-56.5C2553.7,1994.7,2519.8,1994.7,2475.6,2032L2475.6,2032z M2496.4,2139.6l-348.3-348.7
	l-97.5,94.2l333.3,359.7L2496.4,2139.6z M2197.2,1747.4l93.8,90.2l136.8-101.6c-17.3-6.2-34.6-13-51.2-20.2
	c-15.7-6.8-32-14.5-46.4-23.7c-16.5-10.5-32.3-23.1-45.8-37.4c-1.1-1.1-2.1-2.3-3.2-3.5L2197.2,1747.4z M2778,1610.1l-92.5-104.1
	c-71.5,30.3-145,36.4-219.1,8.6c-68.1-25.6-125.7-75.2-175.1-127.4c-26.3-27.7-51-56.8-75.4-86.1c-18.7-22.4-37.3-45.1-56.8-66.9
	l-85.7,96.7c95.6,118.4,210.7,263.1,346.3,332.3c59.1,30.2,147.9,25.5,210.9,11.7C2680.9,1664,2736.6,1643,2778,1610.1L2778,1610.1z
	 M2298,1284.1c12.5-9.8,24.1-21.4,34.6-32.9c10.6-11.5,20.6-23.5,30.7-35.4c6-7.1,11.9-14.3,18.1-21.2l-84.1-87.1
	c-29.4,24.5-57.9,49.9-85.6,76.3c16.1,21,31.9,42.5,49.1,62.5C2272.4,1259.9,2284.7,1272.3,2298,1284.1L2298,1284.1z M2633.3,1457.1
	c-5.7-6.5-11.5-12.8-17.4-19.1c-13.2-14.1-26.9-27.7-40.5-41.4c-8.6-8.6-17.2-17.4-25.6-26.3c-23.9,26.7-47.2,54.8-73.3,79.3
	C2524.5,1474,2581.2,1468.6,2633.3,1457.1L2633.3,1457.1z M2561.6,1010l104.5-107.2l-79.4-88.1L2473.3,915
	c13.8,15.4,27.4,30.9,41.3,46.2c10.7,11.8,21.6,23.5,32.8,34.9C2551.6,1000.4,2556.5,1005.4,2561.6,1010L2561.6,1010z
	 M2513.8,1055.8c-135.3-121.2-262.7-251.5-393-378l-71.7,89.4c65.5,68.1,131.4,135.9,197.6,203.3c37.1,37.7,74.3,75.4,112,112.6
	c15.3,15.1,30.7,30.2,46.2,45.1c7.8,7.5,15.7,15,23.7,22.3L2513.8,1055.8z M2018.7,817.1c-5.3,11.5-9.2,24.5-10.9,35.2
	c-6.2,38.5,6.9,72.4,30.7,101.2l56-49.4c-11-10.5-21.4-21.9-31.3-33.4c-10.5-12.2-20.7-24.7-30.9-37.2
	C2027.8,828.1,2023.3,822.6,2018.7,817.1L2018.7,817.1z M2134,948.5c-17.5,17.7-34.8,35.7-52,53.5c-44.2,45.8-88.1,91.9-131.3,138.7
	c-32.9,35.6-65.5,71.6-97,108.5c-13,15.2-25.8,30.6-38.1,46.3c-6.7,8.6-13.5,17.4-19.8,26.5l96.8,97.1
	c57.5-61.6,118.6-119,178.7-178c59.1-57.9,115.1-116.7,165.7-182L2134,948.5z M1578.3,731.9L1475,818.4c3.8,4,7.5,8.2,11,12.3
	c15,17.3,29,36.5,39.7,56.8c8.2,15.6,14.9,32.6,17.2,50.2c9.2,68.6-38.5,146.8-77.5,199.7c-30,40.7-64.2,79-99.5,115.2
	c-12.4,12.7-25.1,25.2-37.9,37.5c-4,3.9-8,7.7-12.1,11.6c-1.7,1.6-3.7,3.5-5.3,5.2c-5.4,6.4-11,12.9-16.6,19.2l75.8,92.1
	c44.2-43.2,88-86.9,131.2-131.1c25.1-25.7,50.1-51.6,74.5-78c9.9-10.7,19.6-21.5,29.1-32.5c6.7-7.7,13.5-15.8,19.5-24
	c45.2-62.1,62.5-136,53.6-211.9c-7.7-65.9-35.4-133.1-78-184.1C1592.8,748.2,1585.7,739.9,1578.3,731.9L1578.3,731.9z
	 M1251.1,1274.1c28.2-29.3,59.5-56.2,84.9-87.9c-6.3-7-13-13.6-19.7-19.9c-11.4-10.8-23.2-21.2-35-31.6
	c-15-13.1-30.2-26.1-44.8-39.7c-8-7.4-16.6-15.6-24.2-24.2c-12.6,10.1-24.4,21.8-35.6,33.1c-14.1,14.2-27.9,28.5-42.5,42.1
	c18,22.6,38.2,44.4,57.6,65.4C1211.4,1232.5,1231.3,1253.2,1251.1,1274.1L1251.1,1274.1z M1387.4,896.1
	c24.1,28.5,63.7,72.9,94.5,92.5c18.4-49.2-17.7-98.5-51-135.2C1415.8,867.2,1401.2,881.1,1387.4,896.1z M990.8,747
	c64.4,60.7,126.2,124.1,187.6,187.8c65.4,67.7,130.4,135.7,197.1,202.1l70.9-96.5c-24.1-26-48.7-51.6-73.3-77.2
	c-35.8-37.2-71.7-74.2-107.8-111.1c-38.3-39.2-76.7-78.2-115.3-117.1c-24.8-25-49.7-50-74.9-74.7c-12.1,12-24.5,23.7-36.6,35.7
	C1021.9,712.5,1005.9,729.3,990.8,747L990.8,747z M970.8,934c5.4-5.9,11-11.8,16.5-17.6c12-12.5,23.8-24.8,35-37.8
	c-25.5-27.4-50.9-54.8-76.2-82.3c-2.9,2.8-5.7,5.6-8.2,8.1c-9.7,9.6-19.2,19.4-28.6,29.3c-9.3,9.8-18.7,19.7-27.8,29.8
	c4.6,3.6,9.4,7.1,14,10.6c10.5,7.8,21.2,15.5,31.6,23.4C941.5,908.2,957.6,920.6,970.8,934L970.8,934z M951.4,1340.9l-135.7,141.8
	c3.7,1.6,7.4,3.1,11.1,4.6c76.8,30.9,141.5,9.7,211.7-27.7c3-1.6,6.1-3.2,9.1-4.9L951.4,1340.9z M992.6,1283.6l361,426.9
	l104.8-101.9l-376-415.8L992.6,1283.6z M1627.5,1508.4l-346.6,384.5l79.7,87l349.3-379.3L1627.5,1508.4z M745.6,1882.8l90.5,96.2
	c9.3-2.7,19-4.9,28.1-6.8c67.7-13.7,134.1-11.8,197.6,17.4c51.7,23.7,94.7,62.1,133.4,103.1c21.8,23.1,42.5,47.3,62.9,71.7
	c22.4,26.7,44.5,53.7,67.1,80.4c8.3,9.8,16.6,19.7,24.9,29.5l94-107c-7.6-10.9-15.4-21.6-23.1-32.3c-5.9-8.1-12.4-16-18.8-23.7
	c-9.1-10.9-18.4-21.6-27.8-32.2c-23.2-26.2-47.2-51.9-71.5-77c-22.1-22.8-44.6-45.3-67.8-66.9c-16.9-15.8-35.5-32.7-54.4-46.1
	c-47-33-104.2-50.2-160.8-56.6c-77.2-8.6-169.6,1.9-240.6,34.4C767.9,1872,756.7,1877.3,745.6,1882.8L745.6,1882.8z M907,2024.9
	c-3.9,0.9-13.2,3.5-19.8,6.2c15.8,13.6,31.4,28.6,46.1,42.9c11,10.7,22,21.6,32.6,32.9l59.1-58.4c-14.4-6.4-29.6-11.9-44.4-16.1
	C958.9,2026.2,929.5,2020.4,907,2024.9L907,2024.9z M935.2,2528.6l-64.5,65.1c23.9,36.7,54.7,70.3,83,103.9l74.1-70.8
	c-16.1-17.3-33.3-34-49.7-51C963.7,2560.9,948.6,2545.1,935.2,2528.6L935.2,2528.6z M986.5,2479.5
	c57.6,61.7,114.7,123.9,171.2,186.5c37,41,74,82.2,109.9,124.2c13.3,15.6,26.6,31.3,39.3,47.4c3.3,4.2,7.1,9,10.8,13.9
	c9.5-11.6,18.3-23.8,26.9-36.2c21.8-31.7,41.4-63.5,65.3-93.4c-20-21.2-39.6-42.9-59-64.6c-30.3-33.7-60.4-67.6-90.5-101.6
	c-39.8-45.1-79.5-90.3-119-135.6c-15.3-17.5-30.5-35.1-45.8-52.6C1057.7,2403,1022.4,2441.7,986.5,2479.5L986.5,2479.5z
	 M1275.5,2900.9c-29.7-29.5-54.1-64.7-80.6-97.1c-10.5,10.6-20.5,22-30.3,33c-9.6,10.8-19.3,21.8-29.5,32.1l89.4,89.5
	C1241.8,2939.8,1261,2921.4,1275.5,2900.9L1275.5,2900.9z M1281.2,3006.7l99.1,88.9c33.8-41.9,68.1-83.5,103-124.4
	c18.7-22,37-44.3,54.6-67.3c106.6-139.3,210.9-327.6,98.6-495.4c-7.3-10.9-16.2-22.4-25.4-32.7l-103,99.9
	c6.3,8.1,12.3,16.9,17.4,25.1c11.6,18.8,18.7,39.3,21.3,61.2c6.6,56.1-17.4,113.4-45.4,160.7c-16.3,27.5-35,53.7-54.7,78.9
	c-15.8,20.2-32.3,39.6-48.4,59.5C1358.9,2909.4,1320.1,2958.1,1281.2,3006.7L1281.2,3006.7z M1514.6,3049.5
	c40.5,36.8,100,57,152.4,65c61.6,9.5,147.3,6.3,199.9-31.3c128.7-100,246.4-210.9,343.1-342.4c-13.1-16.2-26.2-32.4-39.3-48.5
	c-9.8-12-19.6-24-29.5-36c-3.5-4.3-7.1-8.5-10.7-12.8c-1.6-1.9-3.4-4.2-5.2-5.9c-3.1-3-11.6-11.8-16-12.3
	c-4.3-0.6-12.1,9.8-14.1,12.6l-0.9,1.2l-1.1,1c-32.2,29.8-61.3,62.1-89.9,95.2c-27.2,31.5-53.9,63.5-83,93.4
	c-35.7,36.7-73.8,68.4-118.6,93.6c-33.8,19-69.1,25.4-107.5,21.8c-30.3-2.9-59.4-11.6-88.3-20.7c-15,21.5-30.2,43-45.4,64.3
	c-11.7,16.4-23.6,32.8-35.8,48.8C1521.4,3040.8,1518.1,3045.2,1514.6,3049.5L1514.6,3049.5z M2218.9,2835
	c13.9,14,27.5,28.2,41.2,42.4c21.3,22,42.7,43.2,65.3,63.6l26.8-24.5c-17-18.9-34.8-37.1-52.2-55.6c-17.9-19-36.3-38.9-52.6-59.8
	C2238.8,2813.2,2229.8,2824.8,2218.9,2835z M2677.3,2631.8l-300.5,335.3l103.1,86.2l271.7-344.9L2677.3,2631.8z M2903.6,2873.3
	c-16.2-14.6-32.9-28.7-49.4-42.8c-13.4-11.5-26.7-23-39.8-35c-7.1-6.5-14.2-13.2-21-20.1l-66.3,86.7c19.1,19.2,42,35.3,67.8,43.5
	c22.7,7.2,47.1,8,69.4-1.1C2880.3,2897.9,2893.5,2887,2903.6,2873.3L2903.6,2873.3z M2723.2,2315.6c8,8.6,16.9,16.8,25.4,24.3
	c15.2,13.5,31.1,26.3,47.1,38.8c5.2,4,10.4,8,15.6,12c23.6-17.6,44.8-41.8,63.5-63.8c4.5-5.3,9.1-10.7,13.6-16.1
	c-26.1-26.2-52.4-52.5-79.8-77.4L2723.2,2315.6z M2632.3,1727.8c7.5,3.3,15,6.6,22.5,9.9c17.8,7.8,35.8,15.9,53.9,22.8
	c9.2,3.6,18.8,9.8,27,15.2c10.8,7.2,21.3,15,31.5,22.8c15.9,12.2,31.8,24.9,47.2,37.8l85.4-93.1l-93.7-87.8
	c-17.1,11.1-34.8,21.8-52.5,31.5c-15.8,8.7-34.1,18.4-51.4,23.6c-15,4.6-30.5,8.2-45.8,11.7
	C2648.5,1724.3,2640.4,1726.1,2632.3,1727.8L2632.3,1727.8z M2605.2,1322.5l337.9,375.3l67.9-88l-328.8-373.7L2605.2,1322.5z
	 M3006.1,1499.1l43.3,50c3.7-5.4,7.4-10.8,11.2-16.1c42.8-60.6,70.7-130.3,86.7-202.6c16.6-75.1,20.5-153.4,14.5-230
	c-5.8-75.3-21.3-150.6-45.7-222c-4-11.8-9-23.7-13.7-35.2c-2.9-7.1-5.8-14.1-8.7-21.2l-88.6,83c10.4,16.4,20.9,32.8,31.6,48.9
	c50.1,75.4,84.1,155.5,77,247.6c-3.4,44.6-15.9,87.6-31.8,129.2c-18.1,47.3-40.4,93.5-62,139.3
	C3015.2,1479.7,3010.7,1489.4,3006.1,1499.1z M2878.7,1348.5c9.9,15.2,21.2,29.7,32.7,43.7c11.4,13.9,23.3,27.4,35.1,40.9
	c5.4,6.2,10.9,12.5,16.3,18.9c14.8-30.5,29.2-61.4,43-92.4c8.7-19.7,17.3-39.6,25.1-59.7c5-13,11.2-28.8,13.9-42.5
	c8.9-45.8,11.9-93,3.6-139.2c-2.4-13.6-9.5-29.5-15.4-41.9c-9.9-20.9-21.4-41.3-33.2-61.1c-30.3-51.1-64.2-100.9-98.7-149.3
	c-30.7-43-62.4-85.5-95.2-126.9c-13.7-17.3-27.6-34.5-41.8-51.3c-8-9.4-16.1-18.8-24.4-28c-6,4.9-12,9.8-17.9,14.8
	c-15.3,12.7-30.4,25.6-45,39c-16.4,15-32.3,30.6-47.9,46.5c15.5,16.2,30.5,33.5,44.9,50.5c22.9,26.8,45.2,54.2,67.1,81.7
	c26.6,33.4,52.9,67.3,78.3,101.7c9.8,13.3,19.5,26.7,28.8,40.3c6.1,8.8,12.5,18.3,17.6,27.8c28.2,52.9,40.7,108.6,36.8,168.4
	c-1.5,23.2-5.4,46-10.7,68.6C2887.9,1315.8,2883.2,1332.1,2878.7,1348.5L2878.7,1348.5z M2852.5,703.3
	c22.8-17.4,40.7-40.9,59.7-62.5c-33.6-16.1-81.9-15.2-118.3-4.2C2813.9,658.3,2834.4,680,2852.5,703.3z M2175.1,632.5
	c36.5,32.8,73.2,65.5,109.4,98.6c23.3-17.7,44.1-38.4,64.7-59.1c16.2-16.2,33.9-34.6,52.8-48.9c-30.3-34.1-61.7-68-96.1-97.9
	C2259.8,546.6,2208.2,592.5,2175.1,632.5L2175.1,632.5z M2262.7,475.8l-98.9-93.5c-14.1,11.9-28.1,24-42,36.1
	c-37.6,32.6-74.8,65.8-111.2,99.7c-28,26-55.8,52.6-82.1,80.3c-10.7,11.2-21.3,22.8-31.2,34.7c-6.9,8.4-14.2,17.5-19.7,26.8
	c-7.2,12.2-14.6,24.2-21.2,36.7c-7.4,14-13.8,28.2-18.9,43.2c-15.3,44.5-19.4,93.3-19.4,140c0,54.9,20.2,106.7,50.9,151.6
	c10.6,15.4,22.4,30.2,35.3,43.7c2,2.1,4.1,4.3,6.2,6.4l79.3-77.2c-10.6-23.5-20.4-48.6-28.3-72.7c-6.8-20.8-14.2-46.9-14.2-68.8
	c0-134.1,189.5-284.8,285.5-363C2242.6,491.8,2252.6,483.7,2262.7,475.8z M1971.7,461.3l133.8-115.8c-16.1-8.3-33-15.4-49.8-21.6
	c-28.6-10.7-58.2-19.3-87.9-26.4c-68.2-16.3-139.8-25.6-209.9-27.3c-72.9-1.8-150.1,4.5-220.2,25.8c-56.7,17.3-112,45.7-150.2,91.9
	c5.9,7,11.8,14,17.7,21.1c10.9,13.2,21.8,26.4,33,39.4c4.7,5.5,9.9,11.6,15.3,17.2c10.9-9.2,22.7-18,33.9-26.1
	c33.9-24.4,70.8-46,109.3-62.1c80-33.4,167.4-42.2,243.5,6.6c16.7,9.7,32.8,20.3,48.9,30.8C1915,431.9,1942.5,449.9,1971.7,461.3
	L1971.7,461.3z M1837.3,605.8c8.3-13.1,18.3-25.4,28.6-36.8c13.7-15.1,28.4-29.2,43.1-43.3c5.9-5.6,12.6-11.8,18.8-18.2
	c-85.6-44-156.9-108.6-261.7-89.6c-95.1,36.5-178,104.8-252.1,173.1c-56.4,51.9-110.4,106.9-167.9,157.6
	c32.8,32.6,58.9,72.8,93.6,103.2c100.2-96.3,204.5-197.3,327.1-264.2l1.7-0.9l1.9-0.4C1719.2,574.9,1789.2,583.9,1837.3,605.8
	L1837.3,605.8z M1205.4,697.2c21-18.2,40.3-38.1,61.4-56.2c-29.2-29.6-56.1-60.5-87.5-88l-60.1,61.7
	C1148.6,641.4,1177.3,669.2,1205.4,697.2L1205.4,697.2z M601.2,571.5c9.6,10.3,18.7,21,27.7,31.9c15.4,18.7,30.3,37.9,46.9,55.4
	c8.6,9.1,17.7,17.7,27.5,25.6l43.8-54.9C700.2,601.3,655.2,575.8,601.2,571.5z M550.7,603.9c-10.1-11.9-22.1-28-39.7-25.7
	c-10.6,2-20.2,6.3-29,12.7c-31.9,23.4-49.1,73.5-65.6,110.6c58,66.8,120.1,129.2,182.3,192c37.7,38,75.2,76.2,111.4,115.6
	c34.7,37.6,68.1,76.3,99.7,116.5c23.4-22.2,46.8-44.4,68.8-68.1c18.6-19.9,36.7-41.2,51.9-63.9l-11.1-16.1
	C839,910.5,762.1,840.1,690,764C641.3,712.6,595.1,659.1,550.7,603.9z M525.4,901.8L393.7,778.1c-2.6,8.7-4.9,17.6-7,26.4
	c-7.3,30.6-13.1,61.8-18.2,92.8c-14.4,87.4-23.4,177.6-25.4,266.2c-2.2,99.3,3.6,273.2,74.7,355.2c2.6-2.7,5.3-5.3,7.9-8
	c2.9-3,5.8-6.1,8.9-8.9c5.4-4.9,12-9.6,18.4-14.1c-11.8-45.3-22.5-91-30.8-137c-7.4-41.2-12.9-83-14.6-124.9
	c-2.9-69.6,5-137.6,33.3-201.7C461.4,977.8,490.6,937.8,525.4,901.8z M1182.8,1594.2c-5.4-5.7-10.8-11.4-16.3-17.1
	c-23-24.2-46.6-48.7-68.3-74.3c-8,6.3-16.8,12.3-24.7,17.4c-52.4,33.6-116.3,46.4-177.9,41.3c-64.3-5.3-126.8-29.9-176.8-70.9
	c-55.9-46-91.4-108.3-105.2-179.2c-17.7-90.6,1.2-185.2,34.2-270.2l-79.2-87.9c-27.9,34.8-72.3,95.3-80.5,128
	c-11.1,44.3-14.5,91.4-13.6,136.9c1,50.8,7.6,102,18.5,151.6c14.3,65.2,36.7,131.2,68.3,190.2c26.5,49.4,72.8,84.3,122.9,107.4
	c57,26.2,122,39.1,184.5,41.3c63.4,2.3,130.4-6,190-28C1106,1663.2,1152.6,1635.5,1182.8,1594.2L1182.8,1594.2z M610,1708.3
	l-14.5,12.8l100.9,114.6c2.2-1,4.4-2.1,6.5-3.1c21.3-10.1,42.9-19.7,64.4-29.2c28.9-12.8,60.9-21.5,94.1-27.2
	c-79.2-5.6-157.5-27.9-231.1-58.9C623.6,1714.4,616.8,1711.4,610,1708.3L610,1708.3z M1003.1,1766.9c11.9,0.2,23.7,0.7,35.1,1.3
	c49.8,2.6,97.9,18.8,140.9,43.7c14,8.1,27.5,17.1,40.2,27.1c1.4,1.1,2.7,2.1,4.1,3.2c13.4-14.2,26.6-28.6,39.6-43.1
	c9.5-10.5,18.9-21.2,27.8-32.2c2.4-2.9,7.3-8.7,10.6-13.5c-27-32.9-53.6-66.3-80.2-99.5c-6,6-12.7,11.7-18.2,16.1
	c-53.7,43.3-114.1,75-180.9,92.4C1015.8,1764.1,1009.5,1765.6,1003.1,1766.9L1003.1,1766.9z M916.2,2156.6l-372.4-393.1l-93.6,104.2
	L798,2272.5L916.2,2156.6z M414.5,1922.2c-97.5,179.5-83.7,410.5-82.1,608c2.8,25.9,6.7,51.8,10.6,77.6c3.9,25.9,8.2,52.1,11.6,78.3
	c6.8-6.7,13.7-13.2,20.5-19.5c18.4-17.1,37.3-33.7,56.3-50.1c27.1-23.3,54.7-46.1,82.3-68.9c-15.6-28.4-28.5-60.6-39.3-90.5
	c-16.3-45.2-29.5-92.2-38.7-139.3c-17.8-91.3-30.3-239.1,58.3-299.6C467.7,1986,441.2,1953.8,414.5,1922.2z M814.1,2818.5l93.6-81
	c-7.3-8-14.5-16-21.7-24c-26.6-29.4-53.3-58.8-79.4-88.6c-29.7-33.9-58.9-68.5-86.3-104.3c-25.1-32.9-49.3-67.4-69.3-103.7
	c-30.9-56-58.6-128.4-30.2-191c4.7-10.4,8.9-22.9,11.7-34.5l-89.8-123c-4.5,3.1-8.8,6.5-12.8,9.8c-45.4,37.4-53.2,104.3-48.6,159.2
	c7.8,93.5,51.7,190.5,100.2,269.5c15.4,25,31,49.9,46.4,74.9c10.9,17.6,22.3,35.5,32.2,53.7c7.5,13.8,18.5,28,28.1,40.3
	c13.9,17.7,28.5,35,43.3,52C758.3,2758.5,786,2788.9,814.1,2818.5L814.1,2818.5z M767.9,2862.2l-88.6-89.5l-155.2,145.2
	c7.3,2.5,15.5,4.2,20.3,4.9c43.2,6,98.1-6.6,139.2-18.8c24.3-7.2,47.8-18.3,69.2-31.8C757.7,2869.1,762.9,2865.8,767.9,2862.2
	L767.9,2862.2z M464,2969.9c-4.1,4.9-8.1,10-12,14.8c-10.2,12.6-20.4,25.2-30.7,37.8c-10.3,12.7-20.8,25.3-31.5,37.6
	c-1.4,1.6-3,3.4-4.6,5.3c35.6,10.1,71.4,19.7,107.7,27.1c45,9.1,90.5,14.6,136.4,13.3c114.7-3.2,211.3-48.6,299.3-120.5
	c36-29.4,68.2-62.6,99.3-97c30.3-33.5,59.6-68,91.2-100.3c10.8-11.1,22-21.9,33.4-32.3l-68.3-86.1c-38.8,38.5-78,76.6-117.5,114.3
	c-25,23.8-50.1,47.6-75.8,70.7c-10.1,9.1-20.4,18.2-30.8,26.9c-7.2,6-14.8,12.3-22.7,17.5C744.6,2960.5,574.2,3014.8,464,2969.9
	L464,2969.9z M1051.8,3157.7l-105.5-112.1c-8.6,8-17.7,15.8-26.5,23c-69,57-166.4,82-253.9,90.4c-52.1,5-105.4,4.6-157.5-0.9
	c-44-4.6-90.2-13.1-132-27.9c-2.7-0.9-5.4-1.3-8.2-1.1c-17,1.3-28.2,20.2-30.5,35.5c-4.8,31.4,17.5,58.8,41,76.5
	c33.3,25.2,76.4,45.3,115.3,59.8c51.1,19,105.9,32.1,160.3,36.8c87.3,7.5,171.1-11.9,247.9-53.4c27.3-14.8,53.3-32.1,77.6-51.4
	c14.8-11.8,28.4-24,42.4-36.7c5.3-4.8,10.4-11.2,14.7-16.9C1042,3172.4,1047,3165.1,1051.8,3157.7L1051.8,3157.7z M994.9,2998.6
	c4.6,5.7,9.7,11.3,14.3,16.3c11.6,12.5,23.9,24.6,36.2,36.5c31.8,30.7,64.9,60.4,98.1,89.7c32.3,28.5,65,56.6,97.9,84.4
	c22.1,18.6,44.3,37.3,66.8,55.4c34.1,27.2,68.8,53.7,104.6,78.5c22.5,15.6,45.5,30.3,68.2,45.7c3.8,2.6,7.6,5.2,11.3,7.8
	c14.5-6.5,29.9-11.7,44.9-16.4c20.2-6.3,40.7-11.7,61.1-17.1c26.1-6.8,52.5-13.3,78.4-21c6.7-2,14.4-4.3,22.2-7
	c-23.6-8.6-46.7-18.8-69.1-29.5c-36.8-17.6-72.7-37.4-107.9-58.1c-73.6-43.3-143.8-91.2-214.4-139.1c-7.2-4.9-14.1-10.8-20.6-16.4
	c-9.2-8-18.2-16.3-27.1-24.7c-22.3-21-44-42.5-65.6-64.2c-26.1-26.2-51.9-52.7-77.6-79.4c-8.5-8.8-16.9-17.6-25.3-26.4
	c-0.4-0.4-0.8-0.8-1.2-1.2c-13.2,9.5-26.1,19.4-38.4,30.1C1031.5,2959.9,1012.9,2978.9,994.9,2998.6L994.9,2998.6z M1002.3,3499.6
	l133,118c13.5-10.8,27.4-21.3,41.1-31.6c37.3-27.9,75.7-54.8,115.2-79.3c24.8-15.4,50.4-30.2,76.7-42.8c16.8-8.1,35-16,53.4-21.5
	c-7.3-5.6-16-11.5-19.5-13.9c-20.3-13.9-41.1-27-61.7-40.4c-23.9-15.6-49.2-31.9-71.2-50c-3.3-2.7-17.4-15.5-21.3-15.9
	c-1.4-0.1-4.5,2.4-5.5,3.1c-15.1,12.8-29.7,26.4-44.5,39.5c-21.8,19.4-43.8,38.6-66.3,57.2c-15.4,12.6-31.1,25-47.2,36.7
	c-12.6,9.1-27.7,16.8-41.7,23.4C1029.7,3488.3,1016,3494.2,1002.3,3499.6L1002.3,3499.6z M1275.5,4028.2l87-90.2l-432.1-418.2
	c-24.9,8.9-50,17.5-75.2,25.7c-12.8,4.2-25.7,8.2-38.7,12c-10.5,3-21.3,6-32.1,8.2c-5.4,1.1-10.8,2.1-16.3,2.9
	c-13.5,2.2-27.5,4.1-41.5,5.6c46.2,34.6,92.4,69.2,138.7,103.7c31.9,23.8,63.8,47.5,95.8,71.2c21.1,15.6,42.3,31.4,63.7,46.6
	c8.2,5.8,16.1,12.3,23.8,18.8c10.5,8.8,20.7,17.9,30.9,27c24.9,22.4,49.4,45.3,73.7,68.4c30.7,29.1,61,58.5,91.3,88.1
	c10,9.7,19.9,19.5,29.8,29.3C1274.8,4027.5,1275.1,4027.9,1275.5,4028.2z M941,3797.2c-10.7-7.6-21.3-15.3-32-22.9
	c-33.8-24.1-67.7-48.2-101.7-72c-30.9-21.7-61.9-43.3-93.2-64.4c-11.4-7.7-22.8-15.3-34.4-22.6c-5.5-3.5-12.5-8.2-18.4-10.8
	c-8.8-3.9-17.4-8.7-26.1-12.9c-9.7-4.8-19.6-9-30.1-11.9c-21.9-6.2-54,0.6-75.2,7.2c-33,10.4-65.7,27.9-92.3,50
	c-58.8,48.7-82.3,113.4-52,186.8c3.2,7.8,6.7,15.5,10.4,23c9.3-8.2,18.9-16.1,28.4-23.5c54.6-42.4,126.4-65.5,194.8-70.4
	c85-6,168.5,14.9,241,59.5c12.7,7.8,25.7,16.1,38,24.9L941,3797.2z M976.1,3858.6l-271.7,344.9l74.3,76.7l300.5-335.3L976.1,3858.6z
	 M552.4,4038.7c16.2,14.6,32.9,28.7,49.4,42.8c13.4,11.5,26.7,23,39.8,34.9c7.1,6.5,14.2,13.2,21,20.1l66.3-86.7
	c-19.1-19.2-42-35.3-67.8-43.5c-22.7-7.2-47.1-8-69.4,1.1C575.7,4014.1,562.5,4025,552.4,4038.7L552.4,4038.7z M732.8,4596.4
	c-8-8.6-16.9-16.8-25.4-24.3c-15.2-13.5-31.1-26.3-47.1-38.8c-5.2-4-10.4-8-15.6-12c-23.6,17.6-44.8,41.8-63.5,63.8
	c-4.5,5.3-9.1,10.7-13.6,16.1c26.1,26.2,52.4,52.5,79.8,77.4L732.8,4596.4z M823.7,5184.2c-7.5-3.3-15-6.6-22.5-9.9
	c-17.8-7.8-35.8-15.9-53.9-22.8c-9.2-3.6-18.9-9.8-27-15.2c-10.8-7.2-21.3-15-31.6-22.8c-15.9-12.2-31.8-24.9-47.2-37.8l-85.4,93.1
	l93.7,87.8c17.1-11.1,34.8-21.8,52.5-31.5c15.8-8.7,34.1-18.4,51.4-23.6c15-4.6,30.5-8.2,45.8-11.7
	C807.5,5187.7,815.6,5185.9,823.7,5184.2L823.7,5184.2z M850.8,5589.5l-337.9-375.3l-67.9,88l328.8,373.7L850.8,5589.5z
	 M449.9,5412.9l-43.3-50c-3.7,5.4-7.4,10.8-11.2,16.1c-42.8,60.6-70.7,130.3-86.7,202.6c-16.6,75.1-20.5,153.5-14.5,230
	c5.8,75.3,21.3,150.6,45.7,222c4,11.8,9,23.7,13.7,35.2c2.9,7.1,5.8,14.1,8.7,21.2l88.6-83c-10.4-16.4-20.9-32.8-31.6-48.9
	c-50.1-75.4-84.1-155.5-77-247.6c3.4-44.6,15.9-87.6,31.8-129.2c18.1-47.3,40.4-93.5,62-139.3
	C440.8,5432.3,445.3,5422.6,449.9,5412.9L449.9,5412.9z M493.2,5460.1c-14.8,30.6-29.2,61.3-43,92.3c-8.7,19.7-17.3,39.6-25.1,59.7
	c-5,13-11.2,28.8-13.9,42.5c-8.9,45.8-11.9,93-3.6,139.2c2.4,13.6,9.5,29.5,15.4,41.9c9.9,20.9,21.4,41.3,33.2,61.1
	c30.3,51.1,64.2,100.9,98.7,149.3c30.7,43,62.4,85.5,95.2,126.9c13.7,17.3,27.6,34.5,41.8,51.3c8,9.4,16.1,18.8,24.4,28
	c6-4.9,12-9.8,17.9-14.8c15.3-12.7,30.4-25.6,45-39c16.4-15,32.3-30.6,47.9-46.5c-15.5-16.2-30.5-33.5-44.9-50.5
	c-22.9-26.8-45.2-54.2-67.1-81.7c-26.6-33.4-52.9-67.3-78.3-101.7c-9.8-13.3-19.5-26.7-28.8-40.3c-6.1-8.8-12.5-18.3-17.6-27.8
	c-28.2-52.9-40.7-108.6-36.8-168.4c1.5-23.2,5.4-46,10.7-68.6c3.9-16.6,8.6-32.9,13.1-49.4c-9.9-15.2-21.2-29.7-32.7-43.7
	c-11.4-13.9-23.3-27.4-35.1-40.9C504,5472.6,498.6,5466.4,493.2,5460.1L493.2,5460.1z M662.2,6275.5c-20-21.7-40.5-43.5-58.7-66.7
	c-22.8,17.4-40.7,40.9-59.7,62.5C577.4,6287.3,625.7,6286.5,662.2,6275.5L662.2,6275.5z M1053.9,6289c30.3,34.1,61.7,68,96.1,97.9
	c46.2-21.4,97.8-67.3,130.8-107.3c-36.6-32.8-73.2-65.5-109.4-98.6c-23.3,17.7-44.1,38.4-64.7,59.1
	C1090.5,6256.3,1072.8,6274.6,1053.9,6289L1053.9,6289z M1193.3,6436.2l98.9,93.5c14.1-11.9,28.1-24,42-36.1
	c37.6-32.6,74.8-65.8,111.2-99.7c28-26,55.8-52.6,82.1-80.3c10.7-11.2,21.3-22.8,31.2-34.7c6.9-8.4,14.2-17.5,19.7-26.8
	c7.2-12.2,14.6-24.2,21.2-36.7c7.4-14,13.8-28.2,18.9-43.2c15.3-44.5,19.4-93.3,19.4-140c0-54.9-20.2-106.8-50.9-151.6
	c-10.6-15.4-22.4-30.2-35.3-43.7c-2-2.1-4.1-4.3-6.2-6.4l-79.3,77.2c10.6,23.5,20.4,48.6,28.3,72.8c6.8,20.8,14.2,46.9,14.2,68.8
	c0,134.1-189.5,284.8-285.5,363C1213.4,6420.2,1203.4,6428.3,1193.3,6436.2L1193.3,6436.2z M1484.3,6450.7l-133.8,115.8
	c16.1,8.3,33,15.4,49.8,21.6c28.6,10.7,58.2,19.3,87.9,26.4c68.2,16.4,139.8,25.6,209.9,27.3c72.9,1.8,150.1-4.5,220.2-25.8
	c56.7-17.3,112-45.7,150.2-91.9c-5.9-7-11.8-14-17.7-21.1c-10.9-13.2-21.8-26.4-33-39.4c-4.7-5.5-9.9-11.6-15.3-17.2
	c-10.9,9.2-22.7,18-33.9,26.1c-33.9,24.4-70.8,46-109.3,62.1c-80,33.4-167.4,42.2-243.5-6.6c-16.7-9.7-32.8-20.3-48.9-30.9
	C1541,6480.1,1513.5,6462.1,1484.3,6450.7L1484.3,6450.7z M1618.7,6306.2c-8.3,13.1-18.3,25.4-28.6,36.8
	c-13.7,15.1-28.4,29.2-43.1,43.3c-5.9,5.6-12.6,11.8-18.8,18.2c85.6,44,156.9,108.6,261.7,89.6c95.1-36.5,178-104.8,252.1-173.1
	c56.4-52,110.4-107,168-157.6c-32.8-32.6-58.9-72.8-93.6-103.2c-100.2,96.3-204.5,197.3-327.1,264.2l-1.7,0.9l-1.9,0.4
	C1736.8,6337.1,1666.8,6328.1,1618.7,6306.2L1618.7,6306.2z M2189.2,6271c29.2,29.6,56.1,60.5,87.5,88l60.1-61.7
	c-29.3-26.7-58-54.5-86.1-82.5C2229.6,6233,2210.3,6252.9,2189.2,6271z M2854.8,6340.5c-9.6-10.3-18.7-21-27.7-31.9
	c-15.4-18.7-30.3-37.9-46.9-55.4c-8.6-9.1-17.7-17.8-27.5-25.6l-43.8,54.9C2755.8,6310.7,2800.8,6336.2,2854.8,6340.5z M2646,5786.4
	c-23.4,22.2-46.8,44.4-68.8,68.1c-18.5,19.9-36.7,41.2-51.9,63.9l11.1,16.1c80.6,67,157.5,137.4,229.6,213.5
	c48.7,51.4,94.9,104.9,139.2,160.1c10.1,11.9,22.1,28,39.7,25.7c10.6-2,20.2-6.3,29-12.7c31.9-23.4,49.1-73.5,65.6-110.6
	c-58-66.8-120.1-129.2-182.3-192c-37.7-38-75.2-76.2-111.4-115.6C2711.1,5865.3,2677.7,5826.6,2646,5786.4L2646,5786.4z
	 M2930.6,6010.2l131.6,123.7c2.6-8.7,4.9-17.6,7-26.4c7.3-30.6,13.1-61.8,18.2-92.8c14.4-87.4,23.5-177.6,25.4-266.2
	c2.2-99.3-3.6-273.2-74.7-355.2c-2.6,2.7-5.3,5.3-7.9,8c-2.9,3-5.8,6.1-8.9,8.9c-5.4,4.9-12,9.6-18.4,14.1
	c11.8,45.3,22.5,91,30.8,137c7.4,41.2,12.9,83,14.6,124.9c2.9,69.6-5,137.6-33.3,201.7C2994.6,5934.2,2965.4,5974.2,2930.6,6010.2
	L2930.6,6010.2z M2273.2,5317.8c5.4,5.7,10.8,11.4,16.3,17.1c23,24.2,46.6,48.7,68.3,74.3c8-6.3,16.8-12.3,24.7-17.4
	c52.4-33.6,116.3-46.4,177.9-41.3c64.3,5.3,126.8,29.9,176.8,70.9c55.9,46,91.4,108.3,105.2,179.2c17.7,90.6-1.2,185.2-34.2,270.2
	l79.2,87.9c27.9-34.8,72.3-95.3,80.5-128c11.1-44.2,14.5-91.4,13.6-136.9c-1-50.8-7.6-102-18.5-151.6
	c-14.3-65.3-36.7-131.3-68.3-190.2c-26.5-49.4-72.8-84.3-122.9-107.4c-57-26.2-122-39.1-184.5-41.3c-63.4-2.3-130.4,6-190,28
	C2350,5248.8,2303.4,5276.5,2273.2,5317.8z M2846,5203.7l14.5-12.8l-100.9-114.6c-2.2,1-4.4,2.1-6.5,3.1
	c-21.3,10.1-42.9,19.7-64.4,29.2c-28.9,12.8-60.9,21.5-94.1,27.2c79.2,5.6,157.5,27.9,231.1,58.9
	C2832.4,5197.6,2839.2,5200.6,2846,5203.7L2846,5203.7z M2452.8,5145.1c-11.9-0.2-23.7-0.7-35.1-1.3c-49.8-2.6-97.9-18.8-140.9-43.8
	c-14-8.1-27.5-17.1-40.2-27.1c-1.4-1.1-2.7-2.1-4.1-3.2c-13.4,14.2-26.6,28.6-39.6,43.1c-9.5,10.5-18.9,21.2-27.9,32.2
	c-2.4,2.9-7.3,8.7-10.6,13.5c27,32.9,53.6,66.3,80.2,99.5c6-6,12.7-11.6,18.2-16.1c53.7-43.3,114.1-75,180.9-92.4
	C2440.2,5147.9,2446.5,5146.4,2452.8,5145.1z M2539.8,4755.4l372.4,393.1l93.6-104.2L2658,4639.5L2539.8,4755.4z M2942.4,4364.5
	c15.6,28.4,28.5,60.6,39.3,90.5c16.3,45.2,29.5,92.2,38.7,139.3c17.8,91.3,30.3,239.1-58.3,299.6c26.2,32.1,52.6,64.3,79.4,95.9
	c97.5-179.5,83.7-410.5,82.1-608c-2.8-25.9-6.7-51.8-10.6-77.6c-3.9-25.9-8.2-52.2-11.6-78.3c-6.8,6.7-13.7,13.2-20.5,19.5
	c-18.4,17.1-37.3,33.7-56.3,50.1C2997.6,4318.9,2970,4341.7,2942.4,4364.5L2942.4,4364.5z M2641.9,4093.5l-93.6,81
	c7.3,8,14.5,16,21.7,24c26.6,29.4,53.3,58.8,79.4,88.6c29.7,33.9,58.9,68.5,86.3,104.3c25.1,32.9,49.3,67.4,69.3,103.7
	c30.9,56,58.6,128.4,30.2,191c-4.7,10.4-8.9,22.9-11.7,34.5l89.8,123c4.5-3.2,8.8-6.5,12.8-9.8c45.4-37.4,53.2-104.3,48.6-159.2
	c-7.8-93.5-51.7-190.5-100.2-269.5c-15.4-25-31-49.9-46.4-74.9c-10.9-17.6-22.3-35.5-32.2-53.7c-7.5-13.8-18.5-28-28.1-40.3
	c-13.9-17.7-28.5-35-43.3-52C2697.7,4153.5,2670,4123.1,2641.9,4093.5L2641.9,4093.5z M2688.1,4049.8l88.6,89.5l155.2-145.2
	c-7.3-2.5-15.5-4.2-20.3-4.9c-43.2-6-98.1,6.6-139.2,18.8c-24.3,7.2-47.8,18.3-69.2,31.8C2698.3,4042.9,2693.1,4046.2,2688.1,4049.8
	L2688.1,4049.8z M3070.8,3846.6c-35.6-10.1-71.4-19.7-107.7-27.1c-45-9.1-90.5-14.6-136.4-13.3c-114.7,3.2-211.3,48.6-299.3,120.5
	c-36.1,29.5-68.2,62.6-99.4,97.1c-30.3,33.5-59.6,68-91.3,100.3c-10.8,11-21.9,21.8-33.3,32.2l68.3,86.1
	c38.8-38.5,78-76.6,117.5-114.3c25-23.8,50.1-47.6,75.8-70.7c10.1-9.1,20.4-18.2,30.8-26.9c7.2-6,14.8-12.3,22.7-17.5
	c93-61.4,263.4-115.7,373.6-70.8c4.1-4.9,8.1-10,12-14.8c10.2-12.6,20.4-25.2,30.7-37.8c10.3-12.7,20.8-25.3,31.5-37.6
	C3067.6,3850.3,3069.1,3848.5,3070.8,3846.6L3070.8,3846.6z M2404.2,3754.3l105.5,112.1c8.6-8,17.7-15.8,26.5-23
	c69-57,166.4-82,253.9-90.4c52.1-5,105.4-4.6,157.5,0.9c44,4.6,90.2,13.1,132,27.9c2.7,0.9,5.4,1.3,8.3,1.1
	c17-1.3,28.2-20.2,30.5-35.5c4.8-31.4-17.5-58.8-41-76.5c-33.3-25.2-76.4-45.3-115.3-59.8c-51.1-19-105.9-32.1-160.3-36.8
	c-87.3-7.5-171.1,11.9-247.9,53.4c-27.3,14.8-53.3,32.1-77.6,51.4c-14.8,11.8-28.4,24-42.4,36.7c-5.3,4.8-10.4,11.2-14.7,16.9
	C2414,3739.6,2409,3746.9,2404.2,3754.3L2404.2,3754.3z M1764.8,3554.5c9.1,3.6,17.9,7.7,25.9,11.5c27,13,53.8,28,79.9,42.6
	c38.2,21.4,76,43.5,113.3,66.3c31.9,19.4,63.5,39.3,94.4,60.3c24.2,16.4,49.5,34,71.5,53.3c15.3,13.4,30.2,28,44.8,42.2
	c21.8,21.1,43.4,42.4,65,63.7c35.5,35.1,70.8,70.2,106,105.6c13.3-9.5,26.2-19.5,38.6-30.3c20.2-17.5,38.8-36.6,56.9-56.2
	c-1.6-2.1-3.3-4.2-4.9-6.2c-6.1-7.5-12.5-14.8-18.9-22c-18.1-20.3-37.1-40-56.2-59.4c-51-51.6-104.5-101.4-159.5-148.7
	c-28.5-24.5-57.6-48.4-87.4-71.3c-27-20.7-54.8-40.7-83.5-58.9c-27.5-17.3-85.5-51.5-120.1-48.1c-30.6,12.3-62.8,22.5-94.3,32.5
	c-20.9,6.7-41.8,13.3-62.7,20.2C1770.7,3552.5,1767.8,3553.5,1764.8,3554.5L1764.8,3554.5z M2467.3,3417.2l-140.5-122.8
	c-3.9,3.1-7.8,6.2-11.7,9.2c-18.4,14.3-37.2,28.1-56.3,41.5c-56.7,39.5-117.8,76-181.1,103.8c-17.2,7.5-34.7,14.5-52.5,20.5
	c22.2,8.8,43.6,19.1,63.9,32.5c14.9,9.8,28.8,20.8,42.5,32.1c17.8,14.6,35.2,29.6,53,44.2c6.1,5,16.8,13.1,25.2,12.8
	c3.7-0.1,6.8-2,9.6-4.3c10.2-8.7,20.8-17.1,31.3-25.4c21.3-17,42.8-33.8,64.6-50c10-7.5,20.1-14.8,30.3-22
	c7.4-5.2,15.4-10.1,23.2-14.9c10.5-6.4,21.1-12.8,31.7-19c12.6-7.4,25.2-14.8,37.8-22c7.5-4.3,15-8.7,22.6-12.8
	C2463,3419.5,2465.2,3418.3,2467.3,3417.2L2467.3,3417.2z M2729.3,3337.8c-46.2-34.6-92.4-69.2-138.7-103.7
	c-31.9-23.8-63.8-47.5-95.8-71.2c-21.1-15.6-42.3-31.4-63.7-46.6c-8.2-5.8-16.1-12.3-23.8-18.8c-10.5-8.8-20.7-17.9-30.9-27
	c-24.9-22.4-49.4-45.3-73.7-68.4c-41.1-39-81.9-78.5-122.2-118.4l-87,90.2l432.1,418.2c24.9-8.9,50-17.5,75.2-25.7
	c12.8-4.2,25.7-8.2,38.7-11.9c10.5-3,21.3-6,32.1-8.2c5.4-1.1,10.9-2.1,16.3-2.9C2701.4,3341.2,2715.3,3339.3,2729.3,3337.8z
	 M2515,3114.8c11,7.9,22,15.7,33,23.6c33.5,23.9,67.1,47.7,100.7,71.3c30.9,21.7,61.9,43.3,93.2,64.4c11.4,7.7,22.8,15.3,34.4,22.6
	c5.5,3.5,12.5,8.2,18.4,10.8c8.8,3.9,17.4,8.7,26.1,12.9c9.7,4.8,19.6,9,30.1,11.9c21.9,6.2,54-0.6,75.2-7.2
	c33-10.4,65.7-27.9,92.3-50c58.8-48.7,82.3-113.4,52-186.8c-3.1-7.6-6.6-15.4-10.3-23.1c-9.3,8.2-18.9,16.2-28.5,23.6
	c-54.6,42.4-126.4,65.5-194.8,70.4c-85,6-168.5-14.9-241-59.5c-12.7-7.8-25.7-16.1-38-24.9L2515,3114.8z M3206.7,1811.4l-85.9,100.6
	c11.5,11.9,22.6,25.2,32,37.8c15.7,21,24.9,44.7,26.1,70.9c1.5,30.3-7.9,59.9-21.5,86.7c-14.5,28.4-34.1,54.8-54.8,79
	c-21.6,25.3-45,48.8-68.8,72c-10,9.8-20.1,19.4-30.1,29.3c-7.7,7.5-15.4,15.2-22.5,23.3c-19.8,22.4-41,44.1-61.7,65.7
	c-21.5,22.3-43.2,44.6-65,66.7l82.2,80.4c18.7-15.7,37.1-31.9,55.3-48.2c46.7-41.7,92.4-85.1,135.5-130.5
	c35.8-37.8,72.2-78.9,101.1-122.3c46.6-69.8,84-153.6,71.5-239.4c-8.9-60.9-40.6-110.9-79.7-156.9
	C3216.1,1821.6,3211.5,1816.4,3206.7,1811.4L3206.7,1811.4z M3238.9,674.3l-99.4,100.9c3.8,9.2,7.7,18.5,11.4,27.7
	c4.3,10.6,8.8,21.3,12.6,32.1c53.1,147.6,77.5,299.9,51.4,455.9c-32.7,195.5-138.7,362.9-272.9,505.3c-21.2,22.5-43.5,44-66.3,64.8
	c-6.7,6.1-13.5,12.2-20.3,18.3l101.2,95.6c4.6-2.7,9.2-5.6,13.5-8.5c15-9.8,29.8-21,42.4-33.8c49-49.3,88.5-107.9,137-157.8
	c31-31.8,57.8-67.2,80.6-105.3c64.8-108.2,95.6-234.9,106.1-359.7c9.1-108.2,3.4-219.1-12.8-326.5c-13.4-89.1-34.6-181-65.5-265.8
	c-3.4-9.3-7.8-18.8-12-27.8C3243.8,684.7,3241.3,679.5,3238.9,674.3L3238.9,674.3z M2384.6,210l95.9,97.3c11-3.7,22-7.3,33-10.9
	c69-22.3,141.8-38.8,213.3-50.6c89.2-14.8,180.8-22.7,271.2-20.3c45.2,1.2,90.6,5,135.2,12.3c29,4.8,68,13.9,83.1,42.2
	c17.8,33.5-6.1,78.4-23.6,107.1c-16.7,27.5-35.7,54.1-55.2,79.8c-22,29.1-45,57.5-68.4,85.4c-31.3,37.3-63.4,73.9-95.8,110.2
	c-24.7,27.6-49.7,55-74.2,82.7c-3.9,4.4-7.7,8.7-11.6,13.1l76.3,97.3c17.6-17.6,35.7-34.8,54.1-51.4c6.1-5.5,12.2-10.9,18.4-16.2
	c12.7-10.8,25.1-22,37.2-33.4c81.5-77,152.4-169.7,201.1-270.9c44.2-92,71.9-195.3,64.5-298c-0.5-6.4-1.7-12.9-4.8-18.6
	c-13.1-24.8-59.9-27.4-83.7-28c-66.4-1.8-133.3,0.1-199.6,3c-78.1,3.5-156.3,8.9-234.2,15.4c-71.2,5.9-142.3,12.8-213.2,20.7
	c-62.3,6.9-124.6,14.6-186.6,23.5C2407,203.2,2395.6,206.4,2384.6,210L2384.6,210z M1343.4,344.9
	c107.1-110.3,285.5-136.3,432.1-130.5c79.9,3.2,161.3,15.8,238.3,37.3c62.2,17.4,130.1,42.9,183.9,79.3c23,15.6,44.5,33.4,65.1,52.1
	c28.5,26,56.9,52.3,85,78.8c24.4,23,48.6,46.1,72.3,69.7c9.6,9.5,19.2,19.2,28.5,29c3.6,3.8,7.2,7.6,10.7,11.5
	c23.5-19.3,44.6-40.4,67-61.1c10.8-10,21.7-19.6,33.2-28.7l-60.1-68c-37.3-39.6-75.6-78.8-114.5-116.8c-22.1-21.7-44.7-43.2-68-63.7
	c-9-7.9-18.2-15.7-27.8-23c-5.6-4.2-12.4-9.3-18.7-12.3c-28.6-13.7-60.9-23.7-91.5-31.8c-41.7-11.1-84.4-19.3-127.1-25.8
	c-102-15.5-208-21.5-311.2-17.4c-150.3,5.9-355.3,37.1-469.7,146.5c12.6,14.2,25.7,27.8,39.1,41.3
	C1321.3,322.3,1332.5,333.5,1343.4,344.9L1343.4,344.9z M250.8,475.3l125.3-96.2c-4.2-8.5-8.5-17-12.8-25.4
	c-5.3-10.5-10.6-21.3-16.4-31.6c-4.2-7.4-6.1-15.7-4.4-24.1c4.8-23.7,35.5-34.9,55.8-40.7c39.6-11.4,81.8-19.1,122.5-24.3
	c62.3-7.9,125.9-9.9,188.5-5c162.7,12.7,312.1,71.6,427.1,190.1c27.3,28.1,55.3,55.8,83.2,83.4c30.3,30,60.6,60,91,89.9l103.5-84.3
	c-5-5.1-9.9-10.3-14.7-15.5c-7.1-7.8-16.7-18.1-21.9-27.3c-2.4-3.7-7.2-8.5-10.2-11.8c-7.6-8.3-15.3-16.4-23-24.4
	c-21.8-22.7-43.9-45.1-66-67.4c-12.1-12.2-24.3-24.4-36.4-36.5c-82.5-82.4-187-139.7-301.2-164.1c-22.5-4.8-45.6-8.1-68.4-10.8
	c-29.1-3.5-58.4-6-87.6-8.1c-68.8-4.8-138-7-207-7.7c-80.5-0.7-161.7,0.5-242,5.6c-22.5,1.4-45,3.3-67.3,6.4
	c-16.5,2.3-33.3,5.4-49.3,10.2c-20.3,6.1-40.8,15.3-53.8,32.8c-13.5,18.2-17.3,43.2-18.9,65.3c-1.4,19.8,16.9,66.1,24.5,84.9
	c11.4,28.1,24.2,56.6,38.1,83.6C218,439.7,235.3,459.9,250.8,475.3L250.8,475.3z M890.4,478c-20.7-20-51.4-37.8-75.4-49.5
	c-45.3-22.1-95.3-37-145.1-43.9c-135.2-18.7-258.8,22.1-358.3,115.6c-83.7,78.6-120,302.4-133.9,412.2
	c-7.7,61-13.2,122.4-16.7,183.8c-3,52.6-4.7,105.5-4.3,158.2c0.2,27.8,1.5,55.5,3.8,83.2c6,70.1,18.9,144.8,43.8,210.8
	c15.9,42.2,42,93.6,81.4,119.8l86.7-100.8C269,1444.6,268.7,1222.5,282,1072.8c6.8-77.3,18.9-154.4,34.8-230.3
	c31.7-151,63.2-335,257.1-334.4c75.3,0.3,154.3,30.7,221,64.9c1.9-1.7,3.8-3.3,5.7-5c19.1-16.8,37.6-34.4,55.4-52.7
	C867.9,503.3,879.5,490.9,890.4,478L890.4,478z M298,2751.7c-9.3-75.4-17.2-151-22.3-226.8c-5.7-85.3-8.2-171.3-4-256.7
	c3.8-77.7,13-157.3,33.6-232.5c23.9-87.3,55.5-164.2,111.9-235.6c40-50.7,89-95.6,136.3-139.9c-3-4.9-6-9.9-8.9-14.7
	c-8.8-14.5-17.6-29-26.3-43.5c-11.1-18.4-22.1-36.8-33.2-55.3c-5.9,5.2-11.7,10.8-16.8,15.7c-16.2,15.5-31.9,31.7-47.2,48.1
	c-41.2,43.9-80.9,90-118.1,137.3c-5.2,6.7-10.4,13.3-15.6,20.1c-87.6,114.7-122.4,286.6-136.3,427.4c-9.8,99.9-11.1,201.6-6.1,301.8
	c2.2,42.8,5.5,85.6,10.3,128.2c3.7,33.2,8.3,66.6,14.5,99.4c4.8,25.1,12.1,49.5,20.5,73.7c6.5,19,13.6,37.8,20.8,56.5
	c14-19.7,29.2-38.3,45.3-56.4c8.7-9.8,17.5-19.4,26.3-29.1C287.9,2763.7,293.2,2757.8,298,2751.7L298,2751.7z M278.1,3409.1
	c31.2-14.8,63.6-28.8,95.7-41.2c17.2-6.7,34.7-13,52.4-18.3c8.1-2.4,16.9-4.9,25.7-6.6c-8.1-2.7-15.6-4.9-19.3-6
	c-57.7-17.5-119.6-50.6-144.6-108.7c-29.2-68,4.7-140.2,45.6-195.1c18.4-24.7,39.2-49.9,61-71.7c40.3-40.3,79.9-81.6,119.7-122.5
	c40.3-41.5,80.5-83,120.6-124.6l-76-116.4c-13.1,10.7-26.1,21.5-39.1,32.3c-59.7,50.1-118.8,100.7-173.5,156.4
	c-58,59.1-109.9,122.9-152.6,194c-42.9,71.3-59.6,152.5-42.6,234.4c14.1,68.2,51.4,132.8,105.4,177.1c6.7,5.5,13.4,10.8,20.3,16
	C277.3,3408.5,277.7,3408.8,278.1,3409.1L278.1,3409.1z M264.2,4005.6l87.5-110.3c-40.1-58.4-57.9-125.7-33.5-194.9
	c19.5-55.2,62.1-100.4,110-132.8c54.5-36.8,130.2-65.8,196.8-61.6c63.9,4,128.9-2.4,191.3-16c79.2-17.3,158.1-47.1,228.1-87.9
	c54.6-31.9,110.2-74.4,148.4-126.1l-90.7-75c-15.5,13.8-30.3,28.5-45.5,42.6c-22.4,20.8-45.3,40.7-70.2,58.6
	c-67,48.3-139.6,76.6-221.3,88.9c-60.1,9.1-121.2,11.4-181.8,10.5c-56.1-0.8-116.9,9.8-170.2,26.5c-63.5,19.9-123.3,41.4-171.3,89.4
	c-69,69-121.8,151.9-103.3,253.1c15,82.5,73.4,160.5,120.8,227.7l0.1,0.2L264.2,4005.6z M250.2,4570.4l108.6-110.7
	c-14.1-15.9-27.5-35.8-35.8-53.4c-22.5-47.8-36.8-104-7.3-152.5c10.2-16.7,20.9-33.3,31.6-49.7c15-22.9,30.3-45.7,46-68.1
	c7.5-10.8,15.1-21.5,22.8-32.1c16-22,32.2-43.9,49.3-65.1c13.4-16.6,27.5-33.1,42.7-48.1c23.2-22.7,49.6-42.5,82.1-49
	c42.8-8.6,87.8,8,126.4,24.9c16.3,7.2,34.5,19.1,49.9,30.9L868,3880.2c-7.6-5.5-15.7-10.7-23.3-15.5
	c-40.9-25.5-93.4-41.8-140.8-48.6c-58.5-8.4-119.8-4.2-174.8,18.5c-44.1,18.2-81.3,49.4-113.4,84.2
	c-47.4,51.5-95.5,102.8-141.2,155.8c-17,19.6-33.7,39.6-49.4,60.3c-12.4,16.3-24.3,33.2-34.5,51c-33.3,58.2-61.9,124.4-48.9,192.8
	c10.8,56.8,49.5,112.2,82,158.9C231.1,4548.1,240.5,4560.2,250.2,4570.4L250.2,4570.4z M249.3,5100.6l85.9-100.6
	c-11.5-11.9-22.5-25.2-32-37.8c-15.7-21-24.9-44.7-26.1-70.9c-1.5-30.3,7.9-59.9,21.5-86.7c14.5-28.4,34.1-54.8,54.8-79
	c21.6-25.3,45-48.8,68.8-72c10-9.8,20.1-19.4,30.1-29.3c7.7-7.5,15.4-15.2,22.5-23.3c19.8-22.4,41-44.1,61.7-65.7
	c21.5-22.3,43.2-44.6,65-66.7l-82.2-80.4c-18.7,15.7-37.1,31.9-55.3,48.2c-46.7,41.7-92.4,85.1-135.5,130.5
	c-35.8,37.8-72.2,78.9-101.1,122.3c-46.6,69.9-84,153.6-71.5,239.4c8.9,60.9,40.6,110.9,79.7,156.9
	C239.9,5090.4,244.5,5095.6,249.3,5100.6L249.3,5100.6z M217.1,6237.7l99.4-100.9c-3.8-9.2-7.7-18.5-11.4-27.7
	c-4.3-10.6-8.8-21.3-12.7-32.1c-53.1-147.6-77.5-299.9-51.4-455.9c32.7-195.5,138.7-362.9,272.9-505.3c21.2-22.5,43.5-44,66.3-64.8
	c6.7-6.1,13.5-12.2,20.3-18.3l-101.2-95.6c-4.6,2.7-9.2,5.6-13.5,8.5c-15,9.8-29.8,21-42.4,33.8c-49,49.3-88.5,107.9-137,157.8
	c-31,31.8-57.8,67.2-80.6,105.3c-64.8,108.2-95.6,234.9-106.1,359.7c-9.1,108.2-3.4,219.1,12.8,326.5c13.4,89.1,34.6,181,65.5,265.8
	c3.4,9.3,7.8,18.8,12,27.8C212.3,6227.3,214.7,6232.5,217.1,6237.7L217.1,6237.7z M1071.4,6701.9l-95.9-97.3c-11,3.7-22,7.3-33,10.9
	c-69,22.3-141.8,38.8-213.3,50.6c-89.2,14.8-180.8,22.7-271.2,20.3c-45.2-1.2-90.6-5-135.2-12.3c-29-4.8-68-13.9-83.1-42.2
	c-17.8-33.5,6.1-78.4,23.6-107.1c16.7-27.5,35.7-54.1,55.2-79.8c22-29.1,45-57.5,68.4-85.4c31.3-37.3,63.4-73.9,95.8-110.2
	c24.7-27.6,49.7-55,74.2-82.7c3.9-4.4,7.7-8.7,11.6-13.1l-76.3-97.3c-17.6,17.6-35.7,34.8-54.1,51.4c-6.1,5.5-12.2,10.9-18.4,16.2
	c-12.6,10.8-25,21.9-37.1,33.3c-81.5,77-152.4,169.7-201.1,270.9c-44.3,92-71.9,195.3-64.5,298c0.5,6.4,1.7,12.9,4.8,18.6
	c13.1,24.8,59.9,27.4,83.7,28c66.4,1.8,133.3-0.1,199.6-3c78.1-3.5,156.3-8.9,234.2-15.4c71.2-5.9,142.3-12.8,213.2-20.7
	c62.3-6.9,124.6-14.6,186.6-23.5C1049,6708.8,1060.4,6705.6,1071.4,6701.9L1071.4,6701.9z M2112.6,6567.1
	c-107.1,110.3-285.5,136.3-432.1,130.5c-79.9-3.2-161.3-15.8-238.3-37.3c-62.2-17.4-130.1-42.9-183.9-79.3
	c-23-15.6-44.5-33.4-65.1-52.1c-28.5-26-56.9-52.3-85-78.8c-24.4-23-48.6-46.1-72.3-69.7c-9.6-9.5-19.2-19.2-28.5-29
	c-3.6-3.8-7.2-7.6-10.7-11.5c-23.5,19.3-44.6,40.4-67,61.1c-10.8,10-21.7,19.6-33.2,28.7l60.1,68c37.3,39.6,75.6,78.8,114.5,116.8
	c22.1,21.7,44.7,43.2,68,63.7c9,7.9,18.2,15.7,27.8,23c5.6,4.2,12.4,9.3,18.7,12.3c28.6,13.7,60.9,23.7,91.5,31.8
	c41.7,11.1,84.4,19.3,127.1,25.8c102,15.5,208,21.5,311.2,17.4c150.3-5.9,355.3-37.1,469.7-146.5c-12.6-14.2-25.7-27.8-39.1-41.3
	C2134.7,6589.7,2123.5,6578.5,2112.6,6567.1L2112.6,6567.1z M3205.2,6436.7l-125.3,96.2c4.2,8.5,8.5,17,12.8,25.4
	c5.3,10.5,10.6,21.3,16.4,31.6c4.2,7.4,6.1,15.7,4.4,24.1c-4.8,23.7-35.5,34.9-55.8,40.7c-39.6,11.4-81.8,19.1-122.5,24.3
	c-62.3,7.9-125.9,9.9-188.5,5c-162.7-12.7-312.1-71.6-427.1-190.1c-27.3-28.1-55.3-55.8-83.2-83.4c-30.3-30-60.6-60-91-89.9
	l-103.5,84.3c5,5.1,9.9,10.3,14.7,15.5c7.1,7.8,16.7,18.1,21.9,27.3c2.4,3.7,7.2,8.5,10.2,11.8c7.6,8.3,15.3,16.4,23,24.4
	c21.8,22.7,43.9,45.1,66.1,67.4c12.1,12.2,24.2,24.4,36.4,36.5c82.5,82.4,187,139.6,301.2,164.1c22.5,4.8,45.6,8.1,68.4,10.8
	c29.1,3.5,58.4,6,87.6,8.1c68.8,4.8,138,7,207,7.7c80.5,0.7,161.7-0.5,242-5.6c22.5-1.4,45-3.3,67.3-6.4
	c16.5-2.3,33.3-5.4,49.3-10.2c20.3-6.1,40.8-15.3,53.8-32.8c13.5-18.2,17.3-43.2,18.9-65.3c1.4-19.8-16.9-66.1-24.5-84.9
	c-11.4-28.1-24.2-56.6-38.1-83.6C3238,6472.3,3220.7,6452.1,3205.2,6436.7L3205.2,6436.7z M2660.9,6339c-1.9,1.7-3.8,3.3-5.7,5
	c-19.1,16.8-37.6,34.4-55.4,52.7c-11.7,12-23.4,24.5-34.3,37.3c20.7,20,51.4,37.8,75.4,49.5c45.3,22.1,95.3,37,145.1,43.9
	c135.2,18.7,258.8-22.1,358.3-115.6c83.7-78.6,120-302.4,133.9-412.2c7.7-61,13.2-122.4,16.7-183.8c3-52.6,4.7-105.5,4.3-158.2
	c-0.2-27.8-1.5-55.5-3.8-83.2c-6-70.1-18.9-144.8-43.8-210.8c-15.9-42.2-42-93.6-81.4-119.8l-86.7,100.8
	c103.4,122.8,103.7,344.9,90.4,494.6c-6.8,77.2-18.9,154.4-34.8,230.3c-31.7,151-63.2,335-257.1,334.4
	C2806.7,6403.7,2727.7,6373.2,2660.9,6339L2660.9,6339z M2970.8,5365.1c5.9-5.2,11.7-10.8,16.8-15.7c16.2-15.5,31.9-31.7,47.2-48.1
	c41.2-43.9,80.8-90,118.1-137.3c5.2-6.7,10.4-13.3,15.6-20.1c87.6-114.7,122.4-286.6,136.3-427.4c9.9-99.9,11.1-201.6,6.1-301.8
	c-2.2-42.8-5.5-85.6-10.3-128.2c-3.7-33.2-8.3-66.6-14.5-99.4c-4.8-25.1-12.1-49.6-20.5-73.7c-6.5-19-13.6-37.8-20.8-56.5
	c-14,19.7-29.2,38.3-45.3,56.4c-8.7,9.8-17.5,19.4-26.3,29.1c-5.2,5.7-10.5,11.6-15.3,17.7c9.3,75.4,17.2,151,22.3,226.8
	c5.7,85.2,8.2,171.3,4,256.7c-3.8,77.7-13,157.3-33.6,232.5c-23.9,87.3-55.5,164.2-111.9,235.6c-40,50.7-89,95.6-136.3,139.9
	c3,4.9,6,9.9,8.9,14.7c8.8,14.5,17.6,29,26.3,43.5c9.5,15.8,19,31.6,28.5,47.5C2967.7,5359.9,2969.3,5362.5,2970.8,5365.1
	L2970.8,5365.1z M3177.9,3502.9c-31.4,14.8-63.5,28.7-95.8,41.2c-17.2,6.7-34.7,13-52.4,18.3c-8.1,2.4-16.9,4.9-25.7,6.6
	c8.1,2.7,15.6,4.9,19.3,6c57.7,17.5,119.6,50.5,144.6,108.7c29.2,68-4.7,140.2-45.6,195.1c-18.4,24.7-39.2,49.9-61,71.7
	c-40.3,40.3-79.9,81.6-119.7,122.5c-40.3,41.5-80.5,83-120.6,124.6l76,116.4c13.1-10.7,26.1-21.5,39.1-32.3
	c59.7-50.1,118.8-100.7,173.5-156.4c58-59.1,109.9-122.9,152.6-194c42.9-71.3,59.6-152.5,42.6-234.4
	c-14.1-68.2-51.4-132.8-105.3-177.1C3192.5,3514.1,3185.3,3508.3,3177.9,3502.9L3177.9,3502.9z M3191.8,2906.4l-87.5,110.3
	c40.1,58.4,57.9,125.7,33.5,194.9c-19.5,55.3-62.1,100.4-110,132.8c-54.5,36.8-130.2,65.8-196.8,61.6c-72.8-4.6-146.5-0.5-216.8,20
	c-37,10.8-73.7,24.3-109.1,39.5c-43.5,18.7-86.2,40.6-125.9,66.5c-42.9,27.9-85.2,62.5-116.1,104l82.9,69.1c2.4-2.7,4.8-5.4,7.1-7.9
	c4.9-5.5,10.4-11.1,14.9-16.9c121.6-155.4,322.2-172.6,504.7-169.9c118.3,1.7,253.4-36.2,338.5-121.2
	c67.7-67.7,124.8-150.9,106.7-251.1c-7.2-39.9-25-77.5-45.4-112.2c-22.9-38.8-49.8-75.4-75.7-112.2l-0.1-0.2L3191.8,2906.4z M0,0
	h3456v6912H0V0z"/>
</svg>
