<?xml version="1.0" encoding="UTF-8"?>
<!DOCTYPE svg PUBLIC "-//W3C//DTD SVG 1.1//EN" "http://www.w3.org/Graphics/SVG/1.1/DTD/svg11.dtd">
<!-- Creator: CorelDRAW X7 -->
<svg xmlns="http://www.w3.org/2000/svg" xml:space="preserve" width="166.594mm" height="135.596mm" version="1.1" style="shape-rendering:geometricPrecision; text-rendering:geometricPrecision; image-rendering:optimizeQuality; fill-rule:evenodd; clip-rule:evenodd"
viewBox="0 0 16659 13560"
 xmlns:xlink="http://www.w3.org/1999/xlink">
 <defs>
  <style type="text/css">
   <![CDATA[
    .fil0 {fill:black}
   ]]>
  </style>
 </defs>
 <g id="Layer_x0020_1">
  <metadata id="CorelCorpID_0Corel-Layer"/>
  <path class="fil0" d="M13379 6317c-84,-28 -406,-600 -471,-705l-946 -1490c-464,-749 -505,-510 -896,-902 -419,-419 -731,-278 -1375,-101 -629,174 -1289,344 -1841,592 -348,157 -1021,724 -1413,997 -788,549 -647,434 -1383,1050 -854,714 -535,607 -749,1079 -269,594 -995,655 -983,156 4,-148 118,-350 192,-420 149,-140 293,-63 454,4l-8 -309c-799,-424 -1112,481 -1091,937 16,354 170,625 385,756 435,267 548,59 944,81 81,584 264,651 -120,1081 -69,78 -277,265 -374,314 -178,88 -326,24 -463,-88l-33 -26c-3,-3 -11,-9 -17,-13 -83,79 -322,473 -388,575 -132,200 -255,374 -390,563 -132,185 -267,379 -398,554 -92,121 -376,460 -415,568 77,92 373,339 506,390 535,-282 1380,-1190 1719,-1397 756,-460 552,-484 1062,-448 821,58 1672,-406 2040,-1107 378,-717 60,-576 1042,-1288 201,-145 1281,-873 1441,-930 61,87 266,960 319,1178 55,226 59,250 -79,376 -102,93 -164,150 -266,236 -480,401 -316,300 -606,180 -130,-54 -296,38 -348,111 144,119 470,313 618,494 57,70 119,136 177,199 253,-69 1196,-793 1434,-978 410,-319 360,-559 653,-1147 73,-145 177,-249 231,-373 147,65 574,806 645,985 150,381 170,810 47,1210 -8,25 -18,58 -27,76 -45,93 -14,33 -46,72 -319,54 -743,-58 -749,-379 -8,-394 576,-490 354,22 453,-56 450,-682 -44,-800 -504,-121 -737,310 -757,750 -9,209 37,480 132,642 87,150 357,169 587,176 432,14 529,-120 675,-10 139,105 302,241 543,227 376,-573 716,-1238 860,-1950 92,-459 14,-392 290,-660 964,-932 1373,-2840 607,-4203 -280,-498 -430,-674 -932,-947 -770,-419 -2171,-837 -3059,-616 -549,136 -759,544 -2059,741 -201,30 -814,-40 -671,260 45,93 449,290 596,336 933,292 1368,-178 2345,-324 664,-100 1044,-119 1634,102 470,176 841,507 1069,811 709,946 368,1910 -204,2730zm-231 2205c156,-103 522,-1042 209,-1165 -298,-117 -333,185 -276,410 74,293 60,452 67,755zm-6712 -445c41,238 116,350 31,631 -68,229 -176,322 -287,454l122 301c182,-102 425,-416 528,-658 125,-291 106,-754 -93,-967 -105,47 -224,150 -301,239zm2600 1040c99,68 138,139 242,218 391,-223 1586,-954 1616,-1417 -267,-258 -603,-332 -1072,-354 56,493 296,633 -102,956 -119,96 -209,189 -337,297 -58,49 -110,90 -176,143l-171 157zm-4142 -1040l417 90c134,-555 631,-541 1003,-250l302 -237c-463,-602 -1627,-272 -1722,397zm680 559c-175,42 -212,-125 -271,-285l-470 -100c-48,1105 1056,1172 1396,562 398,-715 -470,-1232 -713,-713 -132,282 108,344 58,536zm4868 -2439c-190,29 -129,-93 -185,-241l-405 52c46,354 215,580 503,672 880,279 1208,-1003 588,-1123 -204,-39 -352,61 -423,164 -147,210 9,336 -78,476zm-583 -372c555,-56 418,-73 520,-218 102,-147 263,-227 496,-245l101 -394c-579,-37 -1078,260 -1117,857zm2163 3800c-202,-41 -331,-41 -499,-142 -365,-220 -382,-581 -90,-864 196,-189 317,-97 483,10 -56,-159 -293,-289 -517,-177 -164,82 -234,290 -253,524 -11,131 9,551 161,617 145,62 549,50 715,32zm-947 -4220c302,181 324,259 376,661l331 147c14,-357 17,-509 -127,-777 -81,-150 -304,-370 -499,-407 -41,91 -85,268 -81,376zm-3385 2296l167 -118c-71,-230 -202,-384 -312,-840 -214,-880 -134,-1617 177,-2444 51,-136 150,-273 185,-407 -286,115 -638,419 -853,586 -201,158 -172,181 -220,497 -92,603 32,1327 278,1854 134,287 391,724 578,872zm317 -248c87,-25 121,-59 189,-117 -5,-224 -446,-1050 -84,-2252 110,-365 225,-609 399,-893 93,-151 175,-239 269,-369 79,-111 233,-221 308,-337 -149,22 -385,105 -546,151 -307,89 -298,58 -440,302 -391,671 -598,1597 -459,2384 68,382 190,866 364,1131zm-4470 -1119c-525,71 -776,1371 15,1568 305,76 513,-80 751,-91 67,280 221,669 181,1005 -15,123 -269,427 -360,511 -69,63 -91,65 -153,153 40,93 84,170 124,287 47,142 38,209 67,358 120,-23 264,-202 383,-224 59,-11 1051,179 1608,-315l-127 -315c-277,74 -406,163 -725,58 -727,-237 -845,-1118 -355,-1720 621,-761 1950,-458 2124,588 67,-35 418,-325 458,-384 -266,-427 -446,-456 -717,-1266 -228,-680 -179,-1053 -131,-1773 -152,53 -1040,712 -1146,803 -202,174 -348,309 -525,454 -85,70 -177,153 -255,222 -84,76 -144,170 -183,318 -72,276 -161,509 -324,657 -145,132 -401,337 -711,271 -241,-51 -429,-299 -388,-580 47,-322 217,-421 389,-585zm-1698 5210c62,74 156,155 267,200 509,-274 1007,-854 1351,-1151 125,-109 367,-224 515,-328 20,-326 -41,-439 -148,-676 -111,23 -153,62 -288,63 -161,1 -203,-57 -318,-66 -206,260 -700,1049 -1021,1466 -104,135 -289,357 -358,492zm6515 -4337c120,-28 441,-265 580,-348 182,-109 399,-251 582,-336 113,146 153,666 264,865 288,10 419,-2 686,81 235,73 342,192 509,262 102,-239 223,-479 372,-681 120,-163 348,-415 388,-662l-328 -131c-240,964 -1780,808 -1738,-377 39,-1077 1362,-1408 1965,-767 267,284 417,749 291,1272 -160,664 -396,298 -30,821 400,572 715,1111 563,1904 -51,265 -204,431 69,612 90,59 178,114 298,128 99,-210 270,-404 447,-823 133,-315 233,-621 314,-978 206,-902 -202,-1339 -565,-1916 -330,-526 -658,-1042 -994,-1572 -161,-254 -329,-566 -526,-771 -161,-168 -363,-235 -531,-422 -70,-78 -84,-121 -185,-159 39,139 279,479 -3,895 -485,717 -1405,-56 -921,-629 121,-143 341,-109 376,54 53,249 -156,248 -324,232 -6,382 327,580 605,371 230,-174 282,-571 110,-819 -197,-283 -444,-153 -814,-46 -225,64 -241,65 -394,189 -819,665 -1321,1613 -1263,2769 20,421 118,630 197,982zm-159 -4596c22,60 1,48 196,135 300,132 554,191 901,156 690,-70 2149,-923 3537,-175 1333,718 1682,1975 943,3308 -105,190 -196,291 -296,455 41,125 152,266 211,408 61,150 92,390 142,500 208,-128 629,-783 735,-1020 434,-974 440,-1932 14,-2914 -201,-461 -435,-758 -810,-961 -750,-407 -1744,-789 -2824,-703 -747,59 -1122,760 -2749,811z"/>
 </g>
</svg>
